<?xml version="1.0" encoding="UTF-8" standalone="no"?>
<!DOCTYPE svg PUBLIC "-//W3C//DTD SVG 1.1//EN"
 "http://www.w3.org/Graphics/SVG/1.1/DTD/svg11.dtd">
<!-- Generated by graphviz version 14.0.4 (20251115.1723)
 -->
<!-- Pages: 1 -->
<svg width="2300pt" height="919pt"
 viewBox="0.00 0.00 2300.00 919.00" xmlns="http://www.w3.org/2000/svg" xmlns:xlink="http://www.w3.org/1999/xlink">
<g id="graph0" class="graph" transform="scale(1 1) rotate(0) translate(4 915.25)">
<polygon fill="white" stroke="none" points="-4,4 -4,-915.25 2296,-915.25 2296,4 -4,4"/>
<!-- start_start_0 -->
<g id="node1" class="node">
<title>start_start_0</title>
<path fill="#f5f5f5" stroke="#333333" d="M740.38,-911.25C740.38,-911.25 704.88,-911.25 704.88,-911.25 698.88,-911.25 692.88,-905.25 692.88,-899.25 692.88,-899.25 692.88,-868 692.88,-868 692.88,-862 698.88,-856 704.88,-856 704.88,-856 740.38,-856 740.38,-856 746.38,-856 752.38,-862 752.38,-868 752.38,-868 752.38,-899.25 752.38,-899.25 752.38,-905.25 746.38,-911.25 740.38,-911.25"/>
<text xml:space="preserve" text-anchor="middle" x="722.62" y="-893.95" font-family="Arial" font-size="14.00">START</text>
<text xml:space="preserve" text-anchor="middle" x="722.62" y="-878.2" font-family="Arial" font-size="14.00">start</text>
<text xml:space="preserve" text-anchor="middle" x="722.62" y="-862.45" font-family="Arial" font-size="14.00">(line 0)</text>
</g>
<!-- stmt_Import_1 -->
<g id="node2" class="node">
<title>stmt_Import_1</title>
<path fill="#f5f5f5" stroke="#333333" d="M45.25,-804.25C45.25,-804.25 12,-804.25 12,-804.25 6,-804.25 0,-798.25 0,-792.25 0,-792.25 0,-761 0,-761 0,-755 6,-749 12,-749 12,-749 45.25,-749 45.25,-749 51.25,-749 57.25,-755 57.25,-761 57.25,-761 57.25,-792.25 57.25,-792.25 57.25,-798.25 51.25,-804.25 45.25,-804.25"/>
<text xml:space="preserve" text-anchor="middle" x="28.62" y="-786.95" font-family="Arial" font-size="14.00">STMT</text>
<text xml:space="preserve" text-anchor="middle" x="28.62" y="-771.2" font-family="Arial" font-size="14.00">Import</text>
<text xml:space="preserve" text-anchor="middle" x="28.62" y="-755.45" font-family="Arial" font-size="14.00">(line 1)</text>
</g>
<!-- start_start_0&#45;&gt;stmt_Import_1 -->
<g id="edge1" class="edge">
<title>start_start_0&#45;&gt;stmt_Import_1</title>
<path fill="none" stroke="#1a73e8" d="M692.54,-882.47C585.47,-881.6 223.58,-875.86 115.12,-838 97.82,-831.96 80.83,-821.41 66.54,-810.81"/>
<polygon fill="#1a73e8" stroke="#1a73e8" points="68.83,-808.15 58.77,-804.81 64.55,-813.69 68.83,-808.15"/>
<text xml:space="preserve" text-anchor="middle" x="135.38" y="-824.7" font-family="Arial" font-size="14.00">control</text>
</g>
<!-- stmt_Import_2 -->
<g id="node3" class="node">
<title>stmt_Import_2</title>
<path fill="#f5f5f5" stroke="#333333" d="M120.25,-804.25C120.25,-804.25 87,-804.25 87,-804.25 81,-804.25 75,-798.25 75,-792.25 75,-792.25 75,-761 75,-761 75,-755 81,-749 87,-749 87,-749 120.25,-749 120.25,-749 126.25,-749 132.25,-755 132.25,-761 132.25,-761 132.25,-792.25 132.25,-792.25 132.25,-798.25 126.25,-804.25 120.25,-804.25"/>
<text xml:space="preserve" text-anchor="middle" x="103.62" y="-786.95" font-family="Arial" font-size="14.00">STMT</text>
<text xml:space="preserve" text-anchor="middle" x="103.62" y="-771.2" font-family="Arial" font-size="14.00">Import</text>
<text xml:space="preserve" text-anchor="middle" x="103.62" y="-755.45" font-family="Arial" font-size="14.00">(line 2)</text>
</g>
<!-- start_start_0&#45;&gt;stmt_Import_2 -->
<g id="edge2" class="edge">
<title>start_start_0&#45;&gt;stmt_Import_2</title>
<path fill="none" stroke="#1a73e8" d="M692.64,-882.07C594.66,-879.96 284.87,-870.79 191.12,-838 173.55,-831.85 156.23,-821.17 141.71,-810.49"/>
<polygon fill="#1a73e8" stroke="#1a73e8" points="143.86,-807.73 133.79,-804.43 139.6,-813.29 143.86,-807.73"/>
<text xml:space="preserve" text-anchor="middle" x="211.38" y="-824.7" font-family="Arial" font-size="14.00">control</text>
</g>
<!-- stmt_Import_3 -->
<g id="node4" class="node">
<title>stmt_Import_3</title>
<path fill="#f5f5f5" stroke="#333333" d="M195.25,-804.25C195.25,-804.25 162,-804.25 162,-804.25 156,-804.25 150,-798.25 150,-792.25 150,-792.25 150,-761 150,-761 150,-755 156,-749 162,-749 162,-749 195.25,-749 195.25,-749 201.25,-749 207.25,-755 207.25,-761 207.25,-761 207.25,-792.25 207.25,-792.25 207.25,-798.25 201.25,-804.25 195.25,-804.25"/>
<text xml:space="preserve" text-anchor="middle" x="178.62" y="-786.95" font-family="Arial" font-size="14.00">STMT</text>
<text xml:space="preserve" text-anchor="middle" x="178.62" y="-771.2" font-family="Arial" font-size="14.00">Import</text>
<text xml:space="preserve" text-anchor="middle" x="178.62" y="-755.45" font-family="Arial" font-size="14.00">(line 3)</text>
</g>
<!-- start_start_0&#45;&gt;stmt_Import_3 -->
<g id="edge3" class="edge">
<title>start_start_0&#45;&gt;stmt_Import_3</title>
<path fill="none" stroke="#1a73e8" d="M692.68,-881.56C604.36,-878.11 346.19,-865.87 267.12,-838 249.11,-831.65 231.31,-820.68 216.45,-809.82"/>
<polygon fill="#1a73e8" stroke="#1a73e8" points="218.89,-807.28 208.81,-804.03 214.66,-812.86 218.89,-807.28"/>
<text xml:space="preserve" text-anchor="middle" x="287.38" y="-824.7" font-family="Arial" font-size="14.00">control</text>
</g>
<!-- stmt_Expr_5 -->
<g id="node5" class="node">
<title>stmt_Expr_5</title>
<path fill="#f5f5f5" stroke="#333333" d="M270.25,-804.25C270.25,-804.25 237,-804.25 237,-804.25 231,-804.25 225,-798.25 225,-792.25 225,-792.25 225,-761 225,-761 225,-755 231,-749 237,-749 237,-749 270.25,-749 270.25,-749 276.25,-749 282.25,-755 282.25,-761 282.25,-761 282.25,-792.25 282.25,-792.25 282.25,-798.25 276.25,-804.25 270.25,-804.25"/>
<text xml:space="preserve" text-anchor="middle" x="253.62" y="-786.95" font-family="Arial" font-size="14.00">STMT</text>
<text xml:space="preserve" text-anchor="middle" x="253.62" y="-771.2" font-family="Arial" font-size="14.00">Expr</text>
<text xml:space="preserve" text-anchor="middle" x="253.62" y="-755.45" font-family="Arial" font-size="14.00">(line 5)</text>
</g>
<!-- start_start_0&#45;&gt;stmt_Expr_5 -->
<g id="edge4" class="edge">
<title>start_start_0&#45;&gt;stmt_Expr_5</title>
<path fill="none" stroke="#1a73e8" d="M692.49,-880.84C614.49,-875.94 407.52,-861.08 343.12,-838 324.86,-831.45 306.73,-820.33 291.62,-809.4"/>
<polygon fill="#1a73e8" stroke="#1a73e8" points="293.94,-806.76 283.83,-803.57 289.74,-812.37 293.94,-806.76"/>
<text xml:space="preserve" text-anchor="middle" x="363.38" y="-824.7" font-family="Arial" font-size="14.00">control</text>
</g>
<!-- stmt_Assign_7 -->
<g id="node6" class="node">
<title>stmt_Assign_7</title>
<path fill="#f5f5f5" stroke="#333333" d="M345.25,-804.25C345.25,-804.25 312,-804.25 312,-804.25 306,-804.25 300,-798.25 300,-792.25 300,-792.25 300,-761 300,-761 300,-755 306,-749 312,-749 312,-749 345.25,-749 345.25,-749 351.25,-749 357.25,-755 357.25,-761 357.25,-761 357.25,-792.25 357.25,-792.25 357.25,-798.25 351.25,-804.25 345.25,-804.25"/>
<text xml:space="preserve" text-anchor="middle" x="328.62" y="-786.95" font-family="Arial" font-size="14.00">STMT</text>
<text xml:space="preserve" text-anchor="middle" x="328.62" y="-771.2" font-family="Arial" font-size="14.00">Assign</text>
<text xml:space="preserve" text-anchor="middle" x="328.62" y="-755.45" font-family="Arial" font-size="14.00">(line 7)</text>
</g>
<!-- start_start_0&#45;&gt;stmt_Assign_7 -->
<g id="edge5" class="edge">
<title>start_start_0&#45;&gt;stmt_Assign_7</title>
<path fill="none" stroke="#1a73e8" d="M692.8,-882.6C636.72,-881.62 512.5,-875.03 416.12,-838 398.43,-831.2 380.86,-820.14 366.15,-809.34"/>
<polygon fill="#1a73e8" stroke="#1a73e8" points="368.67,-806.86 358.59,-803.6 364.44,-812.43 368.67,-806.86"/>
<text xml:space="preserve" text-anchor="middle" x="436.38" y="-824.7" font-family="Arial" font-size="14.00">control</text>
</g>
<!-- stmt_Assign_8 -->
<g id="node7" class="node">
<title>stmt_Assign_8</title>
<path fill="#f5f5f5" stroke="#333333" d="M420.25,-804.25C420.25,-804.25 387,-804.25 387,-804.25 381,-804.25 375,-798.25 375,-792.25 375,-792.25 375,-761 375,-761 375,-755 381,-749 387,-749 387,-749 420.25,-749 420.25,-749 426.25,-749 432.25,-755 432.25,-761 432.25,-761 432.25,-792.25 432.25,-792.25 432.25,-798.25 426.25,-804.25 420.25,-804.25"/>
<text xml:space="preserve" text-anchor="middle" x="403.62" y="-786.95" font-family="Arial" font-size="14.00">STMT</text>
<text xml:space="preserve" text-anchor="middle" x="403.62" y="-771.2" font-family="Arial" font-size="14.00">Assign</text>
<text xml:space="preserve" text-anchor="middle" x="403.62" y="-755.45" font-family="Arial" font-size="14.00">(line 8)</text>
</g>
<!-- start_start_0&#45;&gt;stmt_Assign_8 -->
<g id="edge6" class="edge">
<title>start_start_0&#45;&gt;stmt_Assign_8</title>
<path fill="none" stroke="#1a73e8" d="M692.56,-881.01C646.76,-877.65 557.51,-867.57 488.12,-838 471.66,-830.98 455.26,-820.33 441.35,-809.92"/>
<polygon fill="#1a73e8" stroke="#1a73e8" points="443.84,-807.42 433.79,-804.08 439.56,-812.96 443.84,-807.42"/>
<text xml:space="preserve" text-anchor="middle" x="508.38" y="-824.7" font-family="Arial" font-size="14.00">control</text>
</g>
<!-- stmt_Expr_9 -->
<g id="node8" class="node">
<title>stmt_Expr_9</title>
<path fill="#f5f5f5" stroke="#333333" d="M495.25,-804.25C495.25,-804.25 462,-804.25 462,-804.25 456,-804.25 450,-798.25 450,-792.25 450,-792.25 450,-761 450,-761 450,-755 456,-749 462,-749 462,-749 495.25,-749 495.25,-749 501.25,-749 507.25,-755 507.25,-761 507.25,-761 507.25,-792.25 507.25,-792.25 507.25,-798.25 501.25,-804.25 495.25,-804.25"/>
<text xml:space="preserve" text-anchor="middle" x="478.62" y="-786.95" font-family="Arial" font-size="14.00">STMT</text>
<text xml:space="preserve" text-anchor="middle" x="478.62" y="-771.2" font-family="Arial" font-size="14.00">Expr</text>
<text xml:space="preserve" text-anchor="middle" x="478.62" y="-755.45" font-family="Arial" font-size="14.00">(line 9)</text>
</g>
<!-- start_start_0&#45;&gt;stmt_Expr_9 -->
<g id="edge7" class="edge">
<title>start_start_0&#45;&gt;stmt_Expr_9</title>
<path fill="none" stroke="#1a73e8" d="M692.48,-877.92C658.72,-871.86 603,-859.46 559.12,-838 544.22,-830.71 529.3,-820.52 516.43,-810.59"/>
<polygon fill="#1a73e8" stroke="#1a73e8" points="518.63,-807.87 508.62,-804.39 514.27,-813.35 518.63,-807.87"/>
<text xml:space="preserve" text-anchor="middle" x="579.38" y="-824.7" font-family="Arial" font-size="14.00">control</text>
</g>
<!-- stmt_Assign_11 -->
<g id="node9" class="node">
<title>stmt_Assign_11</title>
<path fill="#f5f5f5" stroke="#333333" d="M577.62,-804.25C577.62,-804.25 537.62,-804.25 537.62,-804.25 531.62,-804.25 525.62,-798.25 525.62,-792.25 525.62,-792.25 525.62,-761 525.62,-761 525.62,-755 531.62,-749 537.62,-749 537.62,-749 577.62,-749 577.62,-749 583.62,-749 589.62,-755 589.62,-761 589.62,-761 589.62,-792.25 589.62,-792.25 589.62,-798.25 583.62,-804.25 577.62,-804.25"/>
<text xml:space="preserve" text-anchor="middle" x="557.62" y="-786.95" font-family="Arial" font-size="14.00">STMT</text>
<text xml:space="preserve" text-anchor="middle" x="557.62" y="-771.2" font-family="Arial" font-size="14.00">Assign</text>
<text xml:space="preserve" text-anchor="middle" x="557.62" y="-755.45" font-family="Arial" font-size="14.00">(line 11)</text>
</g>
<!-- start_start_0&#45;&gt;stmt_Assign_11 -->
<g id="edge8" class="edge">
<title>start_start_0&#45;&gt;stmt_Assign_11</title>
<path fill="none" stroke="#1a73e8" d="M692.59,-872.09C672.14,-864.23 644.93,-852.39 623.12,-838 612.04,-830.69 601.03,-821.49 591.28,-812.49"/>
<polygon fill="#1a73e8" stroke="#1a73e8" points="593.83,-810.09 584.17,-805.74 589,-815.16 593.83,-810.09"/>
<text xml:space="preserve" text-anchor="middle" x="643.38" y="-824.7" font-family="Arial" font-size="14.00">control</text>
</g>
<!-- stmt_Assign_12 -->
<g id="node10" class="node">
<title>stmt_Assign_12</title>
<path fill="#f5f5f5" stroke="#333333" d="M660,-804.25C660,-804.25 619.25,-804.25 619.25,-804.25 613.25,-804.25 607.25,-798.25 607.25,-792.25 607.25,-792.25 607.25,-761 607.25,-761 607.25,-755 613.25,-749 619.25,-749 619.25,-749 660,-749 660,-749 666,-749 672,-755 672,-761 672,-761 672,-792.25 672,-792.25 672,-798.25 666,-804.25 660,-804.25"/>
<text xml:space="preserve" text-anchor="middle" x="639.62" y="-786.95" font-family="Arial" font-size="14.00">STMT</text>
<text xml:space="preserve" text-anchor="middle" x="639.62" y="-771.2" font-family="Arial" font-size="14.00">Assign</text>
<text xml:space="preserve" text-anchor="middle" x="639.62" y="-755.45" font-family="Arial" font-size="14.00">(line 12)</text>
</g>
<!-- start_start_0&#45;&gt;stmt_Assign_12 -->
<g id="edge9" class="edge">
<title>start_start_0&#45;&gt;stmt_Assign_12</title>
<path fill="none" stroke="#1a73e8" d="M693.87,-855.65C688.41,-850.02 682.92,-843.98 678.12,-838 672.21,-830.62 666.41,-822.3 661.18,-814.24"/>
<polygon fill="#1a73e8" stroke="#1a73e8" points="664.22,-812.5 655.92,-805.91 658.3,-816.23 664.22,-812.5"/>
<text xml:space="preserve" text-anchor="middle" x="698.38" y="-824.7" font-family="Arial" font-size="14.00">control</text>
</g>
<!-- stmt_Assign_13 -->
<g id="node11" class="node">
<title>stmt_Assign_13</title>
<path fill="#f5f5f5" stroke="#333333" d="M743,-804.25C743,-804.25 702.25,-804.25 702.25,-804.25 696.25,-804.25 690.25,-798.25 690.25,-792.25 690.25,-792.25 690.25,-761 690.25,-761 690.25,-755 696.25,-749 702.25,-749 702.25,-749 743,-749 743,-749 749,-749 755,-755 755,-761 755,-761 755,-792.25 755,-792.25 755,-798.25 749,-804.25 743,-804.25"/>
<text xml:space="preserve" text-anchor="middle" x="722.62" y="-786.95" font-family="Arial" font-size="14.00">STMT</text>
<text xml:space="preserve" text-anchor="middle" x="722.62" y="-771.2" font-family="Arial" font-size="14.00">Assign</text>
<text xml:space="preserve" text-anchor="middle" x="722.62" y="-755.45" font-family="Arial" font-size="14.00">(line 13)</text>
</g>
<!-- start_start_0&#45;&gt;stmt_Assign_13 -->
<g id="edge10" class="edge">
<title>start_start_0&#45;&gt;stmt_Assign_13</title>
<path fill="none" stroke="#1a73e8" d="M722.62,-855.58C722.62,-843.46 722.62,-828.94 722.62,-815.74"/>
<polygon fill="#1a73e8" stroke="#1a73e8" points="726.13,-816.09 722.63,-806.09 719.13,-816.09 726.13,-816.09"/>
<text xml:space="preserve" text-anchor="middle" x="742.88" y="-824.7" font-family="Arial" font-size="14.00">control</text>
</g>
<!-- stmt_Assign_14 -->
<g id="node12" class="node">
<title>stmt_Assign_14</title>
<path fill="#f5f5f5" stroke="#333333" d="M826,-804.25C826,-804.25 785.25,-804.25 785.25,-804.25 779.25,-804.25 773.25,-798.25 773.25,-792.25 773.25,-792.25 773.25,-761 773.25,-761 773.25,-755 779.25,-749 785.25,-749 785.25,-749 826,-749 826,-749 832,-749 838,-755 838,-761 838,-761 838,-792.25 838,-792.25 838,-798.25 832,-804.25 826,-804.25"/>
<text xml:space="preserve" text-anchor="middle" x="805.62" y="-786.95" font-family="Arial" font-size="14.00">STMT</text>
<text xml:space="preserve" text-anchor="middle" x="805.62" y="-771.2" font-family="Arial" font-size="14.00">Assign</text>
<text xml:space="preserve" text-anchor="middle" x="805.62" y="-755.45" font-family="Arial" font-size="14.00">(line 14)</text>
</g>
<!-- start_start_0&#45;&gt;stmt_Assign_14 -->
<g id="edge11" class="edge">
<title>start_start_0&#45;&gt;stmt_Assign_14</title>
<path fill="none" stroke="#1a73e8" d="M751.01,-855.59C756.41,-849.97 761.86,-843.94 766.62,-838 772.56,-830.59 778.42,-822.26 783.71,-814.2"/>
<polygon fill="#1a73e8" stroke="#1a73e8" points="786.6,-816.17 789.04,-805.86 780.71,-812.4 786.6,-816.17"/>
<text xml:space="preserve" text-anchor="middle" x="797.47" y="-824.7" font-family="Arial" font-size="14.00">control</text>
</g>
<!-- stmt_Assign_15 -->
<g id="node13" class="node">
<title>stmt_Assign_15</title>
<path fill="#f5f5f5" stroke="#333333" d="M909,-804.25C909,-804.25 868.25,-804.25 868.25,-804.25 862.25,-804.25 856.25,-798.25 856.25,-792.25 856.25,-792.25 856.25,-761 856.25,-761 856.25,-755 862.25,-749 868.25,-749 868.25,-749 909,-749 909,-749 915,-749 921,-755 921,-761 921,-761 921,-792.25 921,-792.25 921,-798.25 915,-804.25 909,-804.25"/>
<text xml:space="preserve" text-anchor="middle" x="888.62" y="-786.95" font-family="Arial" font-size="14.00">STMT</text>
<text xml:space="preserve" text-anchor="middle" x="888.62" y="-771.2" font-family="Arial" font-size="14.00">Assign</text>
<text xml:space="preserve" text-anchor="middle" x="888.62" y="-755.45" font-family="Arial" font-size="14.00">(line 15)</text>
</g>
<!-- start_start_0&#45;&gt;stmt_Assign_15 -->
<g id="edge12" class="edge">
<title>start_start_0&#45;&gt;stmt_Assign_15</title>
<path fill="none" stroke="#1a73e8" d="M752.45,-871.99C772.77,-864.08 799.84,-852.22 821.62,-838 832.88,-830.65 844.12,-821.44 854.09,-812.44"/>
<polygon fill="#1a73e8" stroke="#1a73e8" points="856.44,-815.04 861.39,-805.68 851.68,-809.91 856.44,-815.04"/>
<text xml:space="preserve" text-anchor="middle" x="861.73" y="-824.7" font-family="Arial" font-size="14.00">control</text>
</g>
<!-- stmt_Assign_17 -->
<g id="node14" class="node">
<title>stmt_Assign_17</title>
<path fill="#f5f5f5" stroke="#333333" d="M992,-804.25C992,-804.25 951.25,-804.25 951.25,-804.25 945.25,-804.25 939.25,-798.25 939.25,-792.25 939.25,-792.25 939.25,-761 939.25,-761 939.25,-755 945.25,-749 951.25,-749 951.25,-749 992,-749 992,-749 998,-749 1004,-755 1004,-761 1004,-761 1004,-792.25 1004,-792.25 1004,-798.25 998,-804.25 992,-804.25"/>
<text xml:space="preserve" text-anchor="middle" x="971.62" y="-786.95" font-family="Arial" font-size="14.00">STMT</text>
<text xml:space="preserve" text-anchor="middle" x="971.62" y="-771.2" font-family="Arial" font-size="14.00">Assign</text>
<text xml:space="preserve" text-anchor="middle" x="971.62" y="-755.45" font-family="Arial" font-size="14.00">(line 17)</text>
</g>
<!-- start_start_0&#45;&gt;stmt_Assign_17 -->
<g id="edge13" class="edge">
<title>start_start_0&#45;&gt;stmt_Assign_17</title>
<path fill="none" stroke="#1a73e8" d="M752.86,-877.59C786.43,-871.26 841.69,-858.67 885.62,-838 900.92,-830.81 916.4,-820.92 929.94,-811.22"/>
<polygon fill="#1a73e8" stroke="#1a73e8" points="931.77,-814.22 937.75,-805.47 927.62,-808.58 931.77,-814.22"/>
<text xml:space="preserve" text-anchor="middle" x="933.5" y="-824.7" font-family="Arial" font-size="14.00">control</text>
</g>
<!-- stmt_Assign_18 -->
<g id="node15" class="node">
<title>stmt_Assign_18</title>
<path fill="#f5f5f5" stroke="#333333" d="M1075,-804.25C1075,-804.25 1034.25,-804.25 1034.25,-804.25 1028.25,-804.25 1022.25,-798.25 1022.25,-792.25 1022.25,-792.25 1022.25,-761 1022.25,-761 1022.25,-755 1028.25,-749 1034.25,-749 1034.25,-749 1075,-749 1075,-749 1081,-749 1087,-755 1087,-761 1087,-761 1087,-792.25 1087,-792.25 1087,-798.25 1081,-804.25 1075,-804.25"/>
<text xml:space="preserve" text-anchor="middle" x="1054.62" y="-786.95" font-family="Arial" font-size="14.00">STMT</text>
<text xml:space="preserve" text-anchor="middle" x="1054.62" y="-771.2" font-family="Arial" font-size="14.00">Assign</text>
<text xml:space="preserve" text-anchor="middle" x="1054.62" y="-755.45" font-family="Arial" font-size="14.00">(line 18)</text>
</g>
<!-- start_start_0&#45;&gt;stmt_Assign_18 -->
<g id="edge14" class="edge">
<title>start_start_0&#45;&gt;stmt_Assign_18</title>
<path fill="none" stroke="#1a73e8" d="M752.51,-880.43C798.1,-876.32 887.13,-865.26 957.62,-838 976.8,-830.58 996.35,-819.27 1012.83,-808.44"/>
<polygon fill="#1a73e8" stroke="#1a73e8" points="1014.56,-811.49 1020.9,-803 1010.65,-805.69 1014.56,-811.49"/>
<text xml:space="preserve" text-anchor="middle" x="1008.91" y="-824.7" font-family="Arial" font-size="14.00">control</text>
</g>
<!-- stmt_Assign_20 -->
<g id="node16" class="node">
<title>stmt_Assign_20</title>
<path fill="#f5f5f5" stroke="#333333" d="M1158,-804.25C1158,-804.25 1117.25,-804.25 1117.25,-804.25 1111.25,-804.25 1105.25,-798.25 1105.25,-792.25 1105.25,-792.25 1105.25,-761 1105.25,-761 1105.25,-755 1111.25,-749 1117.25,-749 1117.25,-749 1158,-749 1158,-749 1164,-749 1170,-755 1170,-761 1170,-761 1170,-792.25 1170,-792.25 1170,-798.25 1164,-804.25 1158,-804.25"/>
<text xml:space="preserve" text-anchor="middle" x="1137.62" y="-786.95" font-family="Arial" font-size="14.00">STMT</text>
<text xml:space="preserve" text-anchor="middle" x="1137.62" y="-771.2" font-family="Arial" font-size="14.00">Assign</text>
<text xml:space="preserve" text-anchor="middle" x="1137.62" y="-755.45" font-family="Arial" font-size="14.00">(line 20)</text>
</g>
<!-- start_start_0&#45;&gt;stmt_Assign_20 -->
<g id="edge15" class="edge">
<title>start_start_0&#45;&gt;stmt_Assign_20</title>
<path fill="none" stroke="#1a73e8" d="M752.58,-881.84C808.99,-879.6 934.23,-870.99 1033.62,-838 1055.29,-830.81 1077.42,-818.74 1095.67,-807.28"/>
<polygon fill="#1a73e8" stroke="#1a73e8" points="1097.33,-810.38 1103.83,-802.01 1093.53,-804.5 1097.33,-810.38"/>
<text xml:space="preserve" text-anchor="middle" x="1087.13" y="-824.7" font-family="Arial" font-size="14.00">control</text>
</g>
<!-- function_display_score_21 -->
<g id="node17" class="node">
<title>function_display_score_21</title>
<path fill="#f5f5f5" stroke="#333333" d="M1274.88,-804.25C1274.88,-804.25 1200.38,-804.25 1200.38,-804.25 1194.38,-804.25 1188.38,-798.25 1188.38,-792.25 1188.38,-792.25 1188.38,-761 1188.38,-761 1188.38,-755 1194.38,-749 1200.38,-749 1200.38,-749 1274.88,-749 1274.88,-749 1280.88,-749 1286.88,-755 1286.88,-761 1286.88,-761 1286.88,-792.25 1286.88,-792.25 1286.88,-798.25 1280.88,-804.25 1274.88,-804.25"/>
<text xml:space="preserve" text-anchor="middle" x="1237.62" y="-786.95" font-family="Arial" font-size="14.00">FUNCTION</text>
<text xml:space="preserve" text-anchor="middle" x="1237.62" y="-771.2" font-family="Arial" font-size="14.00">display_score</text>
<text xml:space="preserve" text-anchor="middle" x="1237.62" y="-755.45" font-family="Arial" font-size="14.00">(line 21)</text>
</g>
<!-- start_start_0&#45;&gt;function_display_score_21 -->
<g id="edge16" class="edge">
<title>start_start_0&#45;&gt;function_display_score_21</title>
<path fill="none" stroke="#1a73e8" d="M752.81,-882.54C819.09,-881.63 981.8,-875.41 1111.62,-838 1135.06,-831.25 1159.52,-820.49 1180.59,-809.91"/>
<polygon fill="#1a73e8" stroke="#1a73e8" points="1182,-813.12 1189.3,-805.44 1178.8,-806.89 1182,-813.12"/>
<text xml:space="preserve" text-anchor="middle" x="1171.45" y="-824.7" font-family="Arial" font-size="14.00">control</text>
</g>
<!-- function_draw_snake_24 -->
<g id="node20" class="node">
<title>function_draw_snake_24</title>
<path fill="#f5f5f5" stroke="#333333" d="M1382,-804.25C1382,-804.25 1317.25,-804.25 1317.25,-804.25 1311.25,-804.25 1305.25,-798.25 1305.25,-792.25 1305.25,-792.25 1305.25,-761 1305.25,-761 1305.25,-755 1311.25,-749 1317.25,-749 1317.25,-749 1382,-749 1382,-749 1388,-749 1394,-755 1394,-761 1394,-761 1394,-792.25 1394,-792.25 1394,-798.25 1388,-804.25 1382,-804.25"/>
<text xml:space="preserve" text-anchor="middle" x="1349.62" y="-786.95" font-family="Arial" font-size="14.00">FUNCTION</text>
<text xml:space="preserve" text-anchor="middle" x="1349.62" y="-771.2" font-family="Arial" font-size="14.00">draw_snake</text>
<text xml:space="preserve" text-anchor="middle" x="1349.62" y="-755.45" font-family="Arial" font-size="14.00">(line 24)</text>
</g>
<!-- start_start_0&#45;&gt;function_draw_snake_24 -->
<g id="edge19" class="edge">
<title>start_start_0&#45;&gt;function_draw_snake_24</title>
<path fill="none" stroke="#1a73e8" d="M752.87,-882.19C828.41,-880.57 1031.05,-873.04 1195.62,-838 1238.28,-828.92 1250.58,-823.03 1294.51,-804.58"/>
<polygon fill="#1a73e8" stroke="#1a73e8" points="1295.78,-807.85 1303.65,-800.76 1293.07,-801.39 1295.78,-807.85"/>
<text xml:space="preserve" text-anchor="middle" x="1271.81" y="-824.7" font-family="Arial" font-size="14.00">control</text>
</g>
<!-- function_game_loop_27 -->
<g id="node23" class="node">
<title>function_game_loop_27</title>
<path fill="#f5f5f5" stroke="#333333" d="M1559.88,-804.25C1559.88,-804.25 1497.38,-804.25 1497.38,-804.25 1491.38,-804.25 1485.38,-798.25 1485.38,-792.25 1485.38,-792.25 1485.38,-761 1485.38,-761 1485.38,-755 1491.38,-749 1497.38,-749 1497.38,-749 1559.88,-749 1559.88,-749 1565.88,-749 1571.88,-755 1571.88,-761 1571.88,-761 1571.88,-792.25 1571.88,-792.25 1571.88,-798.25 1565.88,-804.25 1559.88,-804.25"/>
<text xml:space="preserve" text-anchor="middle" x="1528.62" y="-786.95" font-family="Arial" font-size="14.00">FUNCTION</text>
<text xml:space="preserve" text-anchor="middle" x="1528.62" y="-771.2" font-family="Arial" font-size="14.00">game_loop</text>
<text xml:space="preserve" text-anchor="middle" x="1528.62" y="-755.45" font-family="Arial" font-size="14.00">(line 27)</text>
</g>
<!-- start_start_0&#45;&gt;function_game_loop_27 -->
<g id="edge22" class="edge">
<title>start_start_0&#45;&gt;function_game_loop_27</title>
<path fill="none" stroke="#1a73e8" d="M752.68,-882.14C838.18,-880.37 1089.94,-872.38 1295.62,-838 1357.63,-827.64 1427.22,-808.6 1474.07,-794.67"/>
<polygon fill="#1a73e8" stroke="#1a73e8" points="1474.87,-798.09 1483.44,-791.86 1472.85,-791.38 1474.87,-798.09"/>
<text xml:space="preserve" text-anchor="middle" x="1387.11" y="-824.7" font-family="Arial" font-size="14.00">control</text>
</g>
<!-- stmt_Expr_91 -->
<g id="node65" class="node">
<title>stmt_Expr_91</title>
<path fill="#f5f5f5" stroke="#333333" d="M1643,-804.25C1643,-804.25 1602.25,-804.25 1602.25,-804.25 1596.25,-804.25 1590.25,-798.25 1590.25,-792.25 1590.25,-792.25 1590.25,-761 1590.25,-761 1590.25,-755 1596.25,-749 1602.25,-749 1602.25,-749 1643,-749 1643,-749 1649,-749 1655,-755 1655,-761 1655,-761 1655,-792.25 1655,-792.25 1655,-798.25 1649,-804.25 1643,-804.25"/>
<text xml:space="preserve" text-anchor="middle" x="1622.62" y="-786.95" font-family="Arial" font-size="14.00">STMT</text>
<text xml:space="preserve" text-anchor="middle" x="1622.62" y="-771.2" font-family="Arial" font-size="14.00">Expr</text>
<text xml:space="preserve" text-anchor="middle" x="1622.62" y="-755.45" font-family="Arial" font-size="14.00">(line 91)</text>
</g>
<!-- start_start_0&#45;&gt;stmt_Expr_91 -->
<g id="edge64" class="edge">
<title>start_start_0&#45;&gt;stmt_Expr_91</title>
<path fill="none" stroke="#1a73e8" d="M752.65,-882.1C848.88,-880.11 1158.19,-871.36 1411.62,-838 1484.15,-828.45 1507.44,-832.34 1579.28,-804.2"/>
<polygon fill="#1a73e8" stroke="#1a73e8" points="1580.36,-807.54 1588.35,-800.57 1577.76,-801.04 1580.36,-807.54"/>
<text xml:space="preserve" text-anchor="middle" x="1544.34" y="-824.7" font-family="Arial" font-size="14.00">control</text>
</g>
<!-- call_render_22 -->
<g id="node18" class="node">
<title>call_render_22</title>
<path fill="#e8f0ff" stroke="#333333" d="M1175,-697.25C1175,-697.25 1134.25,-697.25 1134.25,-697.25 1128.25,-697.25 1122.25,-691.25 1122.25,-685.25 1122.25,-685.25 1122.25,-654 1122.25,-654 1122.25,-648 1128.25,-642 1134.25,-642 1134.25,-642 1175,-642 1175,-642 1181,-642 1187,-648 1187,-654 1187,-654 1187,-685.25 1187,-685.25 1187,-691.25 1181,-697.25 1175,-697.25"/>
<text xml:space="preserve" text-anchor="middle" x="1154.62" y="-679.95" font-family="Arial" font-size="14.00">CALL</text>
<text xml:space="preserve" text-anchor="middle" x="1154.62" y="-664.2" font-family="Arial" font-size="14.00">render</text>
<text xml:space="preserve" text-anchor="middle" x="1154.62" y="-648.45" font-family="Arial" font-size="14.00">(line 22)</text>
</g>
<!-- function_display_score_21&#45;&gt;call_render_22 -->
<g id="edge17" class="edge">
<title>function_display_score_21&#45;&gt;call_render_22</title>
<path fill="none" stroke="#1a73e8" d="M1216.25,-748.58C1206.08,-735.72 1193.79,-720.18 1182.87,-706.36"/>
<polygon fill="#1a73e8" stroke="#1a73e8" points="1185.81,-704.44 1176.87,-698.76 1180.32,-708.78 1185.81,-704.44"/>
<text xml:space="preserve" text-anchor="middle" x="1211.22" y="-717.7" font-family="Arial" font-size="14.00">call</text>
</g>
<!-- call_blit_23 -->
<g id="node19" class="node">
<title>call_blit_23</title>
<path fill="#e8f0ff" stroke="#333333" d="M1258,-697.25C1258,-697.25 1217.25,-697.25 1217.25,-697.25 1211.25,-697.25 1205.25,-691.25 1205.25,-685.25 1205.25,-685.25 1205.25,-654 1205.25,-654 1205.25,-648 1211.25,-642 1217.25,-642 1217.25,-642 1258,-642 1258,-642 1264,-642 1270,-648 1270,-654 1270,-654 1270,-685.25 1270,-685.25 1270,-691.25 1264,-697.25 1258,-697.25"/>
<text xml:space="preserve" text-anchor="middle" x="1237.62" y="-679.95" font-family="Arial" font-size="14.00">CALL</text>
<text xml:space="preserve" text-anchor="middle" x="1237.62" y="-664.2" font-family="Arial" font-size="14.00">blit</text>
<text xml:space="preserve" text-anchor="middle" x="1237.62" y="-648.45" font-family="Arial" font-size="14.00">(line 23)</text>
</g>
<!-- function_display_score_21&#45;&gt;call_blit_23 -->
<g id="edge18" class="edge">
<title>function_display_score_21&#45;&gt;call_blit_23</title>
<path fill="none" stroke="#1a73e8" d="M1237.62,-748.58C1237.62,-736.46 1237.62,-721.94 1237.62,-708.74"/>
<polygon fill="#1a73e8" stroke="#1a73e8" points="1241.13,-709.09 1237.63,-699.09 1234.13,-709.09 1241.13,-709.09"/>
<text xml:space="preserve" text-anchor="middle" x="1247.75" y="-717.7" font-family="Arial" font-size="14.00">call</text>
</g>
<!-- loop_loop_25_25 -->
<g id="node21" class="node">
<title>loop_loop_25_25</title>
<path fill="#e2f7e1" stroke="#333333" d="M1341,-697.25C1341,-697.25 1300.25,-697.25 1300.25,-697.25 1294.25,-697.25 1288.25,-691.25 1288.25,-685.25 1288.25,-685.25 1288.25,-654 1288.25,-654 1288.25,-648 1294.25,-642 1300.25,-642 1300.25,-642 1341,-642 1341,-642 1347,-642 1353,-648 1353,-654 1353,-654 1353,-685.25 1353,-685.25 1353,-691.25 1347,-697.25 1341,-697.25"/>
<text xml:space="preserve" text-anchor="middle" x="1320.62" y="-679.95" font-family="Arial" font-size="14.00">LOOP</text>
<text xml:space="preserve" text-anchor="middle" x="1320.62" y="-664.2" font-family="Arial" font-size="14.00">loop_25</text>
<text xml:space="preserve" text-anchor="middle" x="1320.62" y="-648.45" font-family="Arial" font-size="14.00">(line 25)</text>
</g>
<!-- function_draw_snake_24&#45;&gt;loop_loop_25_25 -->
<g id="edge20" class="edge">
<title>function_draw_snake_24&#45;&gt;loop_loop_25_25</title>
<path fill="none" stroke="#1a73e8" d="M1342.16,-748.58C1338.77,-736.34 1334.72,-721.65 1331.04,-708.34"/>
<polygon fill="#1a73e8" stroke="#1a73e8" points="1334.51,-707.74 1328.47,-699.03 1327.76,-709.6 1334.51,-707.74"/>
<text xml:space="preserve" text-anchor="middle" x="1357.11" y="-717.7" font-family="Arial" font-size="14.00">control</text>
</g>
<!-- call_rect_26 -->
<g id="node22" class="node">
<title>call_rect_26</title>
<path fill="#e8f0ff" stroke="#333333" d="M1010,-590.25C1010,-590.25 969.25,-590.25 969.25,-590.25 963.25,-590.25 957.25,-584.25 957.25,-578.25 957.25,-578.25 957.25,-547 957.25,-547 957.25,-541 963.25,-535 969.25,-535 969.25,-535 1010,-535 1010,-535 1016,-535 1022,-541 1022,-547 1022,-547 1022,-578.25 1022,-578.25 1022,-584.25 1016,-590.25 1010,-590.25"/>
<text xml:space="preserve" text-anchor="middle" x="989.62" y="-572.95" font-family="Arial" font-size="14.00">CALL</text>
<text xml:space="preserve" text-anchor="middle" x="989.62" y="-557.2" font-family="Arial" font-size="14.00">rect</text>
<text xml:space="preserve" text-anchor="middle" x="989.62" y="-541.45" font-family="Arial" font-size="14.00">(line 26)</text>
</g>
<!-- loop_loop_25_25&#45;&gt;call_rect_26 -->
<g id="edge21" class="edge">
<title>loop_loop_25_25&#45;&gt;call_rect_26</title>
<path fill="none" stroke="#1a73e8" d="M1287.88,-645.89C1284.84,-644.39 1281.73,-643.06 1278.62,-642 1195.71,-613.76 1165.12,-652.73 1082.38,-624 1064.49,-617.79 1046.63,-607.41 1031.43,-597"/>
<polygon fill="#1a73e8" stroke="#1a73e8" points="1033.74,-594.35 1023.56,-591.42 1029.69,-600.06 1033.74,-594.35"/>
<text xml:space="preserve" text-anchor="middle" x="1092.5" y="-610.7" font-family="Arial" font-size="14.00">call</text>
</g>
<!-- call_round_34 -->
<g id="node24" class="node">
<title>call_round_34</title>
<path fill="#e8f0ff" stroke="#333333" d="M1424,-697.25C1424,-697.25 1383.25,-697.25 1383.25,-697.25 1377.25,-697.25 1371.25,-691.25 1371.25,-685.25 1371.25,-685.25 1371.25,-654 1371.25,-654 1371.25,-648 1377.25,-642 1383.25,-642 1383.25,-642 1424,-642 1424,-642 1430,-642 1436,-648 1436,-654 1436,-654 1436,-685.25 1436,-685.25 1436,-691.25 1430,-697.25 1424,-697.25"/>
<text xml:space="preserve" text-anchor="middle" x="1403.62" y="-679.95" font-family="Arial" font-size="14.00">CALL</text>
<text xml:space="preserve" text-anchor="middle" x="1403.62" y="-664.2" font-family="Arial" font-size="14.00">round</text>
<text xml:space="preserve" text-anchor="middle" x="1403.62" y="-648.45" font-family="Arial" font-size="14.00">(line 34)</text>
</g>
<!-- function_game_loop_27&#45;&gt;call_round_34 -->
<g id="edge23" class="edge">
<title>function_game_loop_27&#45;&gt;call_round_34</title>
<path fill="none" stroke="#1a73e8" d="M1496.43,-748.58C1480.54,-735.24 1461.2,-718.99 1444.29,-704.79"/>
<polygon fill="#1a73e8" stroke="#1a73e8" points="1446.77,-702.3 1436.87,-698.55 1442.27,-707.66 1446.77,-702.3"/>
<text xml:space="preserve" text-anchor="middle" x="1483.73" y="-717.7" font-family="Arial" font-size="14.00">call</text>
</g>
<!-- call_round_35 -->
<g id="node25" class="node">
<title>call_round_35</title>
<path fill="#e8f0ff" stroke="#333333" d="M1507,-697.25C1507,-697.25 1466.25,-697.25 1466.25,-697.25 1460.25,-697.25 1454.25,-691.25 1454.25,-685.25 1454.25,-685.25 1454.25,-654 1454.25,-654 1454.25,-648 1460.25,-642 1466.25,-642 1466.25,-642 1507,-642 1507,-642 1513,-642 1519,-648 1519,-654 1519,-654 1519,-685.25 1519,-685.25 1519,-691.25 1513,-697.25 1507,-697.25"/>
<text xml:space="preserve" text-anchor="middle" x="1486.62" y="-679.95" font-family="Arial" font-size="14.00">CALL</text>
<text xml:space="preserve" text-anchor="middle" x="1486.62" y="-664.2" font-family="Arial" font-size="14.00">round</text>
<text xml:space="preserve" text-anchor="middle" x="1486.62" y="-648.45" font-family="Arial" font-size="14.00">(line 35)</text>
</g>
<!-- function_game_loop_27&#45;&gt;call_round_35 -->
<g id="edge24" class="edge">
<title>function_game_loop_27&#45;&gt;call_round_35</title>
<path fill="none" stroke="#1a73e8" d="M1517.81,-748.58C1512.86,-736.21 1506.92,-721.36 1501.55,-707.94"/>
<polygon fill="#1a73e8" stroke="#1a73e8" points="1504.93,-706.96 1497.97,-698.98 1498.43,-709.56 1504.93,-706.96"/>
<text xml:space="preserve" text-anchor="middle" x="1520.26" y="-717.7" font-family="Arial" font-size="14.00">call</text>
</g>
<!-- call_Clock_36 -->
<g id="node26" class="node">
<title>call_Clock_36</title>
<path fill="#e8f0ff" stroke="#333333" d="M1590,-697.25C1590,-697.25 1549.25,-697.25 1549.25,-697.25 1543.25,-697.25 1537.25,-691.25 1537.25,-685.25 1537.25,-685.25 1537.25,-654 1537.25,-654 1537.25,-648 1543.25,-642 1549.25,-642 1549.25,-642 1590,-642 1590,-642 1596,-642 1602,-648 1602,-654 1602,-654 1602,-685.25 1602,-685.25 1602,-691.25 1596,-697.25 1590,-697.25"/>
<text xml:space="preserve" text-anchor="middle" x="1569.62" y="-679.95" font-family="Arial" font-size="14.00">CALL</text>
<text xml:space="preserve" text-anchor="middle" x="1569.62" y="-664.2" font-family="Arial" font-size="14.00">Clock</text>
<text xml:space="preserve" text-anchor="middle" x="1569.62" y="-648.45" font-family="Arial" font-size="14.00">(line 36)</text>
</g>
<!-- function_game_loop_27&#45;&gt;call_Clock_36 -->
<g id="edge25" class="edge">
<title>function_game_loop_27&#45;&gt;call_Clock_36</title>
<path fill="none" stroke="#1a73e8" d="M1539.18,-748.58C1544.01,-736.21 1549.82,-721.36 1555.05,-707.94"/>
<polygon fill="#1a73e8" stroke="#1a73e8" points="1558.17,-709.57 1558.55,-698.98 1551.65,-707.03 1558.17,-709.57"/>
<text xml:space="preserve" text-anchor="middle" x="1561.7" y="-717.7" font-family="Arial" font-size="14.00">call</text>
</g>
<!-- loop_loop_37_37 -->
<g id="node27" class="node">
<title>loop_loop_37_37</title>
<path fill="#e2f7e1" stroke="#333333" d="M1673,-697.25C1673,-697.25 1632.25,-697.25 1632.25,-697.25 1626.25,-697.25 1620.25,-691.25 1620.25,-685.25 1620.25,-685.25 1620.25,-654 1620.25,-654 1620.25,-648 1626.25,-642 1632.25,-642 1632.25,-642 1673,-642 1673,-642 1679,-642 1685,-648 1685,-654 1685,-654 1685,-685.25 1685,-685.25 1685,-691.25 1679,-697.25 1673,-697.25"/>
<text xml:space="preserve" text-anchor="middle" x="1652.62" y="-679.95" font-family="Arial" font-size="14.00">LOOP</text>
<text xml:space="preserve" text-anchor="middle" x="1652.62" y="-664.2" font-family="Arial" font-size="14.00">loop_37</text>
<text xml:space="preserve" text-anchor="middle" x="1652.62" y="-648.45" font-family="Arial" font-size="14.00">(line 37)</text>
</g>
<!-- function_game_loop_27&#45;&gt;loop_loop_37_37 -->
<g id="edge26" class="edge">
<title>function_game_loop_27&#45;&gt;loop_loop_37_37</title>
<path fill="none" stroke="#1a73e8" d="M1560.56,-748.58C1576.32,-735.24 1595.51,-718.99 1612.28,-704.79"/>
<polygon fill="#1a73e8" stroke="#1a73e8" points="1614.28,-707.68 1619.65,-698.55 1609.75,-702.34 1614.28,-707.68"/>
<text xml:space="preserve" text-anchor="middle" x="1618.3" y="-717.7" font-family="Arial" font-size="14.00">control</text>
</g>
<!-- call_quit_88 -->
<g id="node63" class="node">
<title>call_quit_88</title>
<path fill="#e8f0ff" stroke="#333333" d="M1756,-697.25C1756,-697.25 1715.25,-697.25 1715.25,-697.25 1709.25,-697.25 1703.25,-691.25 1703.25,-685.25 1703.25,-685.25 1703.25,-654 1703.25,-654 1703.25,-648 1709.25,-642 1715.25,-642 1715.25,-642 1756,-642 1756,-642 1762,-642 1768,-648 1768,-654 1768,-654 1768,-685.25 1768,-685.25 1768,-691.25 1762,-697.25 1756,-697.25"/>
<text xml:space="preserve" text-anchor="middle" x="1735.62" y="-679.95" font-family="Arial" font-size="14.00">CALL</text>
<text xml:space="preserve" text-anchor="middle" x="1735.62" y="-664.2" font-family="Arial" font-size="14.00">quit</text>
<text xml:space="preserve" text-anchor="middle" x="1735.62" y="-648.45" font-family="Arial" font-size="14.00">(line 88)</text>
</g>
<!-- function_game_loop_27&#45;&gt;call_quit_88 -->
<g id="edge62" class="edge">
<title>function_game_loop_27&#45;&gt;call_quit_88</title>
<path fill="none" stroke="#1a73e8" d="M1572.31,-752.92C1575.43,-751.53 1578.56,-750.21 1581.62,-749 1607.91,-738.61 1616.95,-742.82 1642.62,-731 1660.15,-722.93 1678.2,-711.93 1693.68,-701.53"/>
<polygon fill="#1a73e8" stroke="#1a73e8" points="1695.45,-704.56 1701.72,-696.02 1691.49,-698.79 1695.45,-704.56"/>
<text xml:space="preserve" text-anchor="middle" x="1679.61" y="-717.7" font-family="Arial" font-size="14.00">call</text>
</g>
<!-- call_quit_89 -->
<g id="node64" class="node">
<title>call_quit_89</title>
<path fill="#e8f0ff" stroke="#333333" d="M1839,-697.25C1839,-697.25 1798.25,-697.25 1798.25,-697.25 1792.25,-697.25 1786.25,-691.25 1786.25,-685.25 1786.25,-685.25 1786.25,-654 1786.25,-654 1786.25,-648 1792.25,-642 1798.25,-642 1798.25,-642 1839,-642 1839,-642 1845,-642 1851,-648 1851,-654 1851,-654 1851,-685.25 1851,-685.25 1851,-691.25 1845,-697.25 1839,-697.25"/>
<text xml:space="preserve" text-anchor="middle" x="1818.62" y="-679.95" font-family="Arial" font-size="14.00">CALL</text>
<text xml:space="preserve" text-anchor="middle" x="1818.62" y="-664.2" font-family="Arial" font-size="14.00">quit</text>
<text xml:space="preserve" text-anchor="middle" x="1818.62" y="-648.45" font-family="Arial" font-size="14.00">(line 89)</text>
</g>
<!-- function_game_loop_27&#45;&gt;call_quit_89 -->
<g id="edge63" class="edge">
<title>function_game_loop_27&#45;&gt;call_quit_89</title>
<path fill="none" stroke="#1a73e8" d="M1572.15,-752.47C1575.31,-751.19 1578.49,-750.01 1581.62,-749 1629.6,-733.5 1645.07,-744.58 1693.62,-731 1728.98,-721.11 1739.6,-716.27 1776.08,-697.27"/>
<polygon fill="#1a73e8" stroke="#1a73e8" points="1777.35,-700.56 1784.6,-692.83 1774.11,-694.35 1777.35,-700.56"/>
<text xml:space="preserve" text-anchor="middle" x="1749.12" y="-717.7" font-family="Arial" font-size="14.00">call</text>
</g>
<!-- loop_loop_38_38 -->
<g id="node28" class="node">
<title>loop_loop_38_38</title>
<path fill="#e2f7e1" stroke="#333333" d="M1093,-590.25C1093,-590.25 1052.25,-590.25 1052.25,-590.25 1046.25,-590.25 1040.25,-584.25 1040.25,-578.25 1040.25,-578.25 1040.25,-547 1040.25,-547 1040.25,-541 1046.25,-535 1052.25,-535 1052.25,-535 1093,-535 1093,-535 1099,-535 1105,-541 1105,-547 1105,-547 1105,-578.25 1105,-578.25 1105,-584.25 1099,-590.25 1093,-590.25"/>
<text xml:space="preserve" text-anchor="middle" x="1072.62" y="-572.95" font-family="Arial" font-size="14.00">LOOP</text>
<text xml:space="preserve" text-anchor="middle" x="1072.62" y="-557.2" font-family="Arial" font-size="14.00">loop_38</text>
<text xml:space="preserve" text-anchor="middle" x="1072.62" y="-541.45" font-family="Arial" font-size="14.00">(line 38)</text>
</g>
<!-- loop_loop_37_37&#45;&gt;loop_loop_38_38 -->
<g id="edge27" class="edge">
<title>loop_loop_37_37&#45;&gt;loop_loop_38_38</title>
<path fill="none" stroke="#1a73e8" d="M1619.92,-645.78C1616.87,-644.31 1613.75,-643.01 1610.62,-642 1548.67,-621.93 1382.5,-633.82 1318.12,-624 1246.27,-613.04 1164.65,-591 1115.96,-576.8"/>
<polygon fill="#1a73e8" stroke="#1a73e8" points="1117.24,-573.52 1106.66,-574.06 1115.26,-580.24 1117.24,-573.52"/>
<text xml:space="preserve" text-anchor="middle" x="1338.38" y="-610.7" font-family="Arial" font-size="14.00">control</text>
</g>
<!-- loop_loop_51_51 -->
<g id="node40" class="node">
<title>loop_loop_51_51</title>
<path fill="#e2f7e1" stroke="#333333" d="M1309,-590.25C1309,-590.25 1268.25,-590.25 1268.25,-590.25 1262.25,-590.25 1256.25,-584.25 1256.25,-578.25 1256.25,-578.25 1256.25,-547 1256.25,-547 1256.25,-541 1262.25,-535 1268.25,-535 1268.25,-535 1309,-535 1309,-535 1315,-535 1321,-541 1321,-547 1321,-547 1321,-578.25 1321,-578.25 1321,-584.25 1315,-590.25 1309,-590.25"/>
<text xml:space="preserve" text-anchor="middle" x="1288.62" y="-572.95" font-family="Arial" font-size="14.00">LOOP</text>
<text xml:space="preserve" text-anchor="middle" x="1288.62" y="-557.2" font-family="Arial" font-size="14.00">loop_51</text>
<text xml:space="preserve" text-anchor="middle" x="1288.62" y="-541.45" font-family="Arial" font-size="14.00">(line 51)</text>
</g>
<!-- loop_loop_37_37&#45;&gt;loop_loop_51_51 -->
<g id="edge39" class="edge">
<title>loop_loop_37_37&#45;&gt;loop_loop_51_51</title>
<path fill="none" stroke="#1a73e8" d="M1619.89,-645.87C1616.84,-644.37 1613.73,-643.05 1610.62,-642 1522.5,-612.25 1491.92,-648.23 1402.12,-624 1377.13,-617.25 1351.47,-604.22 1330.9,-591.99"/>
<polygon fill="#1a73e8" stroke="#1a73e8" points="1332.88,-589.1 1322.52,-586.87 1329.23,-595.07 1332.88,-589.1"/>
<text xml:space="preserve" text-anchor="middle" x="1422.38" y="-610.7" font-family="Arial" font-size="14.00">control</text>
</g>
<!-- if_if_67_67 -->
<g id="node48" class="node">
<title>if_if_67_67</title>
<path fill="#fff3cd" stroke="#333333" d="M1392,-590.25C1392,-590.25 1351.25,-590.25 1351.25,-590.25 1345.25,-590.25 1339.25,-584.25 1339.25,-578.25 1339.25,-578.25 1339.25,-547 1339.25,-547 1339.25,-541 1345.25,-535 1351.25,-535 1351.25,-535 1392,-535 1392,-535 1398,-535 1404,-541 1404,-547 1404,-547 1404,-578.25 1404,-578.25 1404,-584.25 1398,-590.25 1392,-590.25"/>
<text xml:space="preserve" text-anchor="middle" x="1371.62" y="-572.95" font-family="Arial" font-size="14.00">IF</text>
<text xml:space="preserve" text-anchor="middle" x="1371.62" y="-557.2" font-family="Arial" font-size="14.00">if_67</text>
<text xml:space="preserve" text-anchor="middle" x="1371.62" y="-541.45" font-family="Arial" font-size="14.00">(line 67)</text>
</g>
<!-- loop_loop_37_37&#45;&gt;if_if_67_67 -->
<g id="edge47" class="edge">
<title>loop_loop_37_37&#45;&gt;if_if_67_67</title>
<path fill="none" stroke="#1a73e8" d="M1619.82,-646.06C1616.79,-644.53 1613.7,-643.14 1610.62,-642 1558.19,-622.6 1539.7,-639.97 1486.12,-624 1454.99,-614.72 1446.26,-608.45 1414.12,-590.39"/>
<polygon fill="#1a73e8" stroke="#1a73e8" points="1416.16,-587.52 1405.72,-585.7 1412.75,-593.63 1416.16,-587.52"/>
<text xml:space="preserve" text-anchor="middle" x="1506.38" y="-610.7" font-family="Arial" font-size="14.00">control</text>
</g>
<!-- call_fill_71 -->
<g id="node49" class="node">
<title>call_fill_71</title>
<path fill="#e8f0ff" stroke="#333333" d="M1475,-590.25C1475,-590.25 1434.25,-590.25 1434.25,-590.25 1428.25,-590.25 1422.25,-584.25 1422.25,-578.25 1422.25,-578.25 1422.25,-547 1422.25,-547 1422.25,-541 1428.25,-535 1434.25,-535 1434.25,-535 1475,-535 1475,-535 1481,-535 1487,-541 1487,-547 1487,-547 1487,-578.25 1487,-578.25 1487,-584.25 1481,-590.25 1475,-590.25"/>
<text xml:space="preserve" text-anchor="middle" x="1454.62" y="-572.95" font-family="Arial" font-size="14.00">CALL</text>
<text xml:space="preserve" text-anchor="middle" x="1454.62" y="-557.2" font-family="Arial" font-size="14.00">fill</text>
<text xml:space="preserve" text-anchor="middle" x="1454.62" y="-541.45" font-family="Arial" font-size="14.00">(line 71)</text>
</g>
<!-- loop_loop_37_37&#45;&gt;call_fill_71 -->
<g id="edge48" class="edge">
<title>loop_loop_37_37&#45;&gt;call_fill_71</title>
<path fill="none" stroke="#1a73e8" d="M1619.96,-647.07C1616.85,-645.28 1613.71,-643.56 1610.62,-642 1590.94,-632.05 1584.55,-632.93 1564.38,-624 1536.38,-611.61 1527.49,-607.51 1497.11,-590.36"/>
<polygon fill="#1a73e8" stroke="#1a73e8" points="1499.19,-587.51 1488.76,-585.63 1495.73,-593.6 1499.19,-587.51"/>
<text xml:space="preserve" text-anchor="middle" x="1574.5" y="-610.7" font-family="Arial" font-size="14.00">call</text>
</g>
<!-- call_rect_72 -->
<g id="node50" class="node">
<title>call_rect_72</title>
<path fill="#e8f0ff" stroke="#333333" d="M1558,-590.25C1558,-590.25 1517.25,-590.25 1517.25,-590.25 1511.25,-590.25 1505.25,-584.25 1505.25,-578.25 1505.25,-578.25 1505.25,-547 1505.25,-547 1505.25,-541 1511.25,-535 1517.25,-535 1517.25,-535 1558,-535 1558,-535 1564,-535 1570,-541 1570,-547 1570,-547 1570,-578.25 1570,-578.25 1570,-584.25 1564,-590.25 1558,-590.25"/>
<text xml:space="preserve" text-anchor="middle" x="1537.62" y="-572.95" font-family="Arial" font-size="14.00">CALL</text>
<text xml:space="preserve" text-anchor="middle" x="1537.62" y="-557.2" font-family="Arial" font-size="14.00">rect</text>
<text xml:space="preserve" text-anchor="middle" x="1537.62" y="-541.45" font-family="Arial" font-size="14.00">(line 72)</text>
</g>
<!-- loop_loop_37_37&#45;&gt;call_rect_72 -->
<g id="edge49" class="edge">
<title>loop_loop_37_37&#45;&gt;call_rect_72</title>
<path fill="none" stroke="#1a73e8" d="M1623.01,-641.58C1608.52,-628.36 1590.92,-612.29 1575.47,-598.18"/>
<polygon fill="#1a73e8" stroke="#1a73e8" points="1578,-595.75 1568.26,-591.59 1573.28,-600.92 1578,-595.75"/>
<text xml:space="preserve" text-anchor="middle" x="1612.14" y="-610.7" font-family="Arial" font-size="14.00">call</text>
</g>
<!-- call_append_74 -->
<g id="node51" class="node">
<title>call_append_74</title>
<path fill="#e8f0ff" stroke="#333333" d="M1641,-590.25C1641,-590.25 1600.25,-590.25 1600.25,-590.25 1594.25,-590.25 1588.25,-584.25 1588.25,-578.25 1588.25,-578.25 1588.25,-547 1588.25,-547 1588.25,-541 1594.25,-535 1600.25,-535 1600.25,-535 1641,-535 1641,-535 1647,-535 1653,-541 1653,-547 1653,-547 1653,-578.25 1653,-578.25 1653,-584.25 1647,-590.25 1641,-590.25"/>
<text xml:space="preserve" text-anchor="middle" x="1620.62" y="-572.95" font-family="Arial" font-size="14.00">CALL</text>
<text xml:space="preserve" text-anchor="middle" x="1620.62" y="-557.2" font-family="Arial" font-size="14.00">append</text>
<text xml:space="preserve" text-anchor="middle" x="1620.62" y="-541.45" font-family="Arial" font-size="14.00">(line 74)</text>
</g>
<!-- loop_loop_37_37&#45;&gt;call_append_74 -->
<g id="edge50" class="edge">
<title>loop_loop_37_37&#45;&gt;call_append_74</title>
<path fill="none" stroke="#1a73e8" d="M1644.38,-641.58C1640.65,-629.34 1636.18,-614.65 1632.12,-601.34"/>
<polygon fill="#1a73e8" stroke="#1a73e8" points="1635.54,-600.57 1629.28,-592.02 1628.85,-602.61 1635.54,-600.57"/>
<text xml:space="preserve" text-anchor="middle" x="1648.67" y="-610.7" font-family="Arial" font-size="14.00">call</text>
</g>
<!-- if_if_75_75 -->
<g id="node52" class="node">
<title>if_if_75_75</title>
<path fill="#fff3cd" stroke="#333333" d="M1724,-590.25C1724,-590.25 1683.25,-590.25 1683.25,-590.25 1677.25,-590.25 1671.25,-584.25 1671.25,-578.25 1671.25,-578.25 1671.25,-547 1671.25,-547 1671.25,-541 1677.25,-535 1683.25,-535 1683.25,-535 1724,-535 1724,-535 1730,-535 1736,-541 1736,-547 1736,-547 1736,-578.25 1736,-578.25 1736,-584.25 1730,-590.25 1724,-590.25"/>
<text xml:space="preserve" text-anchor="middle" x="1703.62" y="-572.95" font-family="Arial" font-size="14.00">IF</text>
<text xml:space="preserve" text-anchor="middle" x="1703.62" y="-557.2" font-family="Arial" font-size="14.00">if_75</text>
<text xml:space="preserve" text-anchor="middle" x="1703.62" y="-541.45" font-family="Arial" font-size="14.00">(line 75)</text>
</g>
<!-- loop_loop_37_37&#45;&gt;if_if_75_75 -->
<g id="edge51" class="edge">
<title>loop_loop_37_37&#45;&gt;if_if_75_75</title>
<path fill="none" stroke="#1a73e8" d="M1665.76,-641.58C1671.83,-629.09 1679.13,-614.06 1685.69,-600.55"/>
<polygon fill="#1a73e8" stroke="#1a73e8" points="1688.65,-602.46 1689.87,-591.93 1682.36,-599.4 1688.65,-602.46"/>
<text xml:space="preserve" text-anchor="middle" x="1701.43" y="-610.7" font-family="Arial" font-size="14.00">control</text>
</g>
<!-- loop_loop_77_77 -->
<g id="node54" class="node">
<title>loop_loop_77_77</title>
<path fill="#e2f7e1" stroke="#333333" d="M1807,-590.25C1807,-590.25 1766.25,-590.25 1766.25,-590.25 1760.25,-590.25 1754.25,-584.25 1754.25,-578.25 1754.25,-578.25 1754.25,-547 1754.25,-547 1754.25,-541 1760.25,-535 1766.25,-535 1766.25,-535 1807,-535 1807,-535 1813,-535 1819,-541 1819,-547 1819,-547 1819,-578.25 1819,-578.25 1819,-584.25 1813,-590.25 1807,-590.25"/>
<text xml:space="preserve" text-anchor="middle" x="1786.62" y="-572.95" font-family="Arial" font-size="14.00">LOOP</text>
<text xml:space="preserve" text-anchor="middle" x="1786.62" y="-557.2" font-family="Arial" font-size="14.00">loop_77</text>
<text xml:space="preserve" text-anchor="middle" x="1786.62" y="-541.45" font-family="Arial" font-size="14.00">(line 77)</text>
</g>
<!-- loop_loop_37_37&#45;&gt;loop_loop_77_77 -->
<g id="edge53" class="edge">
<title>loop_loop_37_37&#45;&gt;loop_loop_77_77</title>
<path fill="none" stroke="#1a73e8" d="M1685.11,-647.86C1688.31,-645.86 1691.53,-643.88 1694.62,-642 1708.24,-633.73 1712.97,-633.68 1725.62,-624 1735.5,-616.44 1745.42,-607.4 1754.3,-598.64"/>
<polygon fill="#1a73e8" stroke="#1a73e8" points="1756.53,-601.37 1761.08,-591.8 1751.55,-596.44 1756.53,-601.37"/>
<text xml:space="preserve" text-anchor="middle" x="1763.85" y="-610.7" font-family="Arial" font-size="14.00">control</text>
</g>
<!-- call_draw_snake_80 -->
<g id="node56" class="node">
<title>call_draw_snake_80</title>
<path fill="#e8f0ff" stroke="#333333" d="M1914,-590.25C1914,-590.25 1849.25,-590.25 1849.25,-590.25 1843.25,-590.25 1837.25,-584.25 1837.25,-578.25 1837.25,-578.25 1837.25,-547 1837.25,-547 1837.25,-541 1843.25,-535 1849.25,-535 1849.25,-535 1914,-535 1914,-535 1920,-535 1926,-541 1926,-547 1926,-547 1926,-578.25 1926,-578.25 1926,-584.25 1920,-590.25 1914,-590.25"/>
<text xml:space="preserve" text-anchor="middle" x="1881.62" y="-572.95" font-family="Arial" font-size="14.00">CALL</text>
<text xml:space="preserve" text-anchor="middle" x="1881.62" y="-557.2" font-family="Arial" font-size="14.00">draw_snake</text>
<text xml:space="preserve" text-anchor="middle" x="1881.62" y="-541.45" font-family="Arial" font-size="14.00">(line 80)</text>
</g>
<!-- loop_loop_37_37&#45;&gt;call_draw_snake_80 -->
<g id="edge55" class="edge">
<title>loop_loop_37_37&#45;&gt;call_draw_snake_80</title>
<path fill="none" stroke="#1a73e8" d="M1685.49,-646.22C1688.51,-644.65 1691.58,-643.21 1694.62,-642 1733.75,-626.46 1748.54,-639.66 1787.62,-624 1804.92,-617.07 1822.47,-606.84 1837.65,-596.76"/>
<polygon fill="#1a73e8" stroke="#1a73e8" points="1839.24,-599.92 1845.52,-591.39 1835.29,-594.14 1839.24,-599.92"/>
<text xml:space="preserve" text-anchor="middle" x="1827.9" y="-610.7" font-family="Arial" font-size="14.00">call</text>
</g>
<!-- call_display_score_81 -->
<g id="node57" class="node">
<title>call_display_score_81</title>
<path fill="#e8f0ff" stroke="#333333" d="M2030.88,-590.25C2030.88,-590.25 1956.38,-590.25 1956.38,-590.25 1950.38,-590.25 1944.38,-584.25 1944.38,-578.25 1944.38,-578.25 1944.38,-547 1944.38,-547 1944.38,-541 1950.38,-535 1956.38,-535 1956.38,-535 2030.88,-535 2030.88,-535 2036.88,-535 2042.88,-541 2042.88,-547 2042.88,-547 2042.88,-578.25 2042.88,-578.25 2042.88,-584.25 2036.88,-590.25 2030.88,-590.25"/>
<text xml:space="preserve" text-anchor="middle" x="1993.62" y="-572.95" font-family="Arial" font-size="14.00">CALL</text>
<text xml:space="preserve" text-anchor="middle" x="1993.62" y="-557.2" font-family="Arial" font-size="14.00">display_score</text>
<text xml:space="preserve" text-anchor="middle" x="1993.62" y="-541.45" font-family="Arial" font-size="14.00">(line 81)</text>
</g>
<!-- loop_loop_37_37&#45;&gt;call_display_score_81 -->
<g id="edge56" class="edge">
<title>loop_loop_37_37&#45;&gt;call_display_score_81</title>
<path fill="none" stroke="#1a73e8" d="M1685.4,-645.99C1688.44,-644.47 1691.54,-643.1 1694.62,-642 1756.6,-619.84 1777.61,-639.32 1841.62,-624 1881.21,-614.52 1892.3,-607.86 1933.62,-590.63"/>
<polygon fill="#1a73e8" stroke="#1a73e8" points="1934.86,-593.9 1942.77,-586.85 1932.19,-587.43 1934.86,-593.9"/>
<text xml:space="preserve" text-anchor="middle" x="1902.08" y="-610.7" font-family="Arial" font-size="14.00">call</text>
</g>
<!-- call_update_82 -->
<g id="node58" class="node">
<title>call_update_82</title>
<path fill="#e8f0ff" stroke="#333333" d="M2114,-590.25C2114,-590.25 2073.25,-590.25 2073.25,-590.25 2067.25,-590.25 2061.25,-584.25 2061.25,-578.25 2061.25,-578.25 2061.25,-547 2061.25,-547 2061.25,-541 2067.25,-535 2073.25,-535 2073.25,-535 2114,-535 2114,-535 2120,-535 2126,-541 2126,-547 2126,-547 2126,-578.25 2126,-578.25 2126,-584.25 2120,-590.25 2114,-590.25"/>
<text xml:space="preserve" text-anchor="middle" x="2093.62" y="-572.95" font-family="Arial" font-size="14.00">CALL</text>
<text xml:space="preserve" text-anchor="middle" x="2093.62" y="-557.2" font-family="Arial" font-size="14.00">update</text>
<text xml:space="preserve" text-anchor="middle" x="2093.62" y="-541.45" font-family="Arial" font-size="14.00">(line 82)</text>
</g>
<!-- loop_loop_37_37&#45;&gt;call_update_82 -->
<g id="edge57" class="edge">
<title>loop_loop_37_37&#45;&gt;call_update_82</title>
<path fill="none" stroke="#1a73e8" d="M1685.36,-645.85C1688.4,-644.36 1691.51,-643.04 1694.62,-642 1788.5,-610.58 1818.95,-640.06 1916.62,-624 1974.31,-614.52 1992.78,-614.58 2050.7,-590.1"/>
<polygon fill="#1a73e8" stroke="#1a73e8" points="2051.97,-593.36 2059.77,-586.2 2049.2,-586.93 2051.97,-593.36"/>
<text xml:space="preserve" text-anchor="middle" x="2011.9" y="-610.7" font-family="Arial" font-size="14.00">call</text>
</g>
<!-- if_if_83_83 -->
<g id="node59" class="node">
<title>if_if_83_83</title>
<path fill="#fff3cd" stroke="#333333" d="M2197,-590.25C2197,-590.25 2156.25,-590.25 2156.25,-590.25 2150.25,-590.25 2144.25,-584.25 2144.25,-578.25 2144.25,-578.25 2144.25,-547 2144.25,-547 2144.25,-541 2150.25,-535 2156.25,-535 2156.25,-535 2197,-535 2197,-535 2203,-535 2209,-541 2209,-547 2209,-547 2209,-578.25 2209,-578.25 2209,-584.25 2203,-590.25 2197,-590.25"/>
<text xml:space="preserve" text-anchor="middle" x="2176.62" y="-572.95" font-family="Arial" font-size="14.00">IF</text>
<text xml:space="preserve" text-anchor="middle" x="2176.62" y="-557.2" font-family="Arial" font-size="14.00">if_83</text>
<text xml:space="preserve" text-anchor="middle" x="2176.62" y="-541.45" font-family="Arial" font-size="14.00">(line 83)</text>
</g>
<!-- loop_loop_37_37&#45;&gt;if_if_83_83 -->
<g id="edge58" class="edge">
<title>loop_loop_37_37&#45;&gt;if_if_83_83</title>
<path fill="none" stroke="#1a73e8" d="M1685.33,-645.76C1688.38,-644.29 1691.5,-643 1694.62,-642 1764.79,-619.55 1953.12,-636.99 2025.62,-624 2072.33,-615.63 2086.75,-611.99 2133.85,-590.18"/>
<polygon fill="#1a73e8" stroke="#1a73e8" points="2135.13,-593.45 2142.71,-586.05 2132.16,-587.11 2135.13,-593.45"/>
<text xml:space="preserve" text-anchor="middle" x="2110.99" y="-610.7" font-family="Arial" font-size="14.00">control</text>
</g>
<!-- call_tick_87 -->
<g id="node62" class="node">
<title>call_tick_87</title>
<path fill="#e8f0ff" stroke="#333333" d="M2280,-590.25C2280,-590.25 2239.25,-590.25 2239.25,-590.25 2233.25,-590.25 2227.25,-584.25 2227.25,-578.25 2227.25,-578.25 2227.25,-547 2227.25,-547 2227.25,-541 2233.25,-535 2239.25,-535 2239.25,-535 2280,-535 2280,-535 2286,-535 2292,-541 2292,-547 2292,-547 2292,-578.25 2292,-578.25 2292,-584.25 2286,-590.25 2280,-590.25"/>
<text xml:space="preserve" text-anchor="middle" x="2259.62" y="-572.95" font-family="Arial" font-size="14.00">CALL</text>
<text xml:space="preserve" text-anchor="middle" x="2259.62" y="-557.2" font-family="Arial" font-size="14.00">tick</text>
<text xml:space="preserve" text-anchor="middle" x="2259.62" y="-541.45" font-family="Arial" font-size="14.00">(line 87)</text>
</g>
<!-- loop_loop_37_37&#45;&gt;call_tick_87 -->
<g id="edge61" class="edge">
<title>loop_loop_37_37&#45;&gt;call_tick_87</title>
<path fill="none" stroke="#1a73e8" d="M1685.31,-645.71C1688.37,-644.25 1691.49,-642.98 1694.62,-642 1788.24,-612.74 2039.81,-644.99 2135.62,-624 2164.35,-617.71 2194.06,-603.56 2217.19,-590.53"/>
<polygon fill="#1a73e8" stroke="#1a73e8" points="2218.79,-593.65 2225.69,-585.61 2215.28,-587.59 2218.79,-593.65"/>
<text xml:space="preserve" text-anchor="middle" x="2192.11" y="-610.7" font-family="Arial" font-size="14.00">call</text>
</g>
<!-- call_fill_39 -->
<g id="node29" class="node">
<title>call_fill_39</title>
<path fill="#e8f0ff" stroke="#333333" d="M777,-483.25C777,-483.25 736.25,-483.25 736.25,-483.25 730.25,-483.25 724.25,-477.25 724.25,-471.25 724.25,-471.25 724.25,-440 724.25,-440 724.25,-434 730.25,-428 736.25,-428 736.25,-428 777,-428 777,-428 783,-428 789,-434 789,-440 789,-440 789,-471.25 789,-471.25 789,-477.25 783,-483.25 777,-483.25"/>
<text xml:space="preserve" text-anchor="middle" x="756.62" y="-465.95" font-family="Arial" font-size="14.00">CALL</text>
<text xml:space="preserve" text-anchor="middle" x="756.62" y="-450.2" font-family="Arial" font-size="14.00">fill</text>
<text xml:space="preserve" text-anchor="middle" x="756.62" y="-434.45" font-family="Arial" font-size="14.00">(line 39)</text>
</g>
<!-- loop_loop_38_38&#45;&gt;call_fill_39 -->
<g id="edge28" class="edge">
<title>loop_loop_38_38&#45;&gt;call_fill_39</title>
<path fill="none" stroke="#1a73e8" d="M1039.83,-539.03C1036.8,-537.5 1033.71,-536.12 1030.62,-535 974.06,-514.41 954.95,-530.89 896.38,-517 854.8,-507.14 841.83,-503.68 799.39,-483.24"/>
<polygon fill="#1a73e8" stroke="#1a73e8" points="801.11,-480.19 790.59,-478.96 798.05,-486.48 801.11,-480.19"/>
<text xml:space="preserve" text-anchor="middle" x="906.5" y="-503.7" font-family="Arial" font-size="14.00">call</text>
</g>
<!-- call_render_40 -->
<g id="node30" class="node">
<title>call_render_40</title>
<path fill="#e8f0ff" stroke="#333333" d="M860,-483.25C860,-483.25 819.25,-483.25 819.25,-483.25 813.25,-483.25 807.25,-477.25 807.25,-471.25 807.25,-471.25 807.25,-440 807.25,-440 807.25,-434 813.25,-428 819.25,-428 819.25,-428 860,-428 860,-428 866,-428 872,-434 872,-440 872,-440 872,-471.25 872,-471.25 872,-477.25 866,-483.25 860,-483.25"/>
<text xml:space="preserve" text-anchor="middle" x="839.62" y="-465.95" font-family="Arial" font-size="14.00">CALL</text>
<text xml:space="preserve" text-anchor="middle" x="839.62" y="-450.2" font-family="Arial" font-size="14.00">render</text>
<text xml:space="preserve" text-anchor="middle" x="839.62" y="-434.45" font-family="Arial" font-size="14.00">(line 40)</text>
</g>
<!-- loop_loop_38_38&#45;&gt;call_render_40 -->
<g id="edge29" class="edge">
<title>loop_loop_38_38&#45;&gt;call_render_40</title>
<path fill="none" stroke="#1a73e8" d="M1040.13,-539.72C1036.98,-538 1033.79,-536.39 1030.62,-535 1002.7,-522.69 993.28,-526.78 964.38,-517 929.69,-505.26 918.63,-501.96 882.16,-483.23"/>
<polygon fill="#1a73e8" stroke="#1a73e8" points="884.15,-480.32 873.66,-478.82 880.92,-486.53 884.15,-480.32"/>
<text xml:space="preserve" text-anchor="middle" x="974.5" y="-503.7" font-family="Arial" font-size="14.00">call</text>
</g>
<!-- call_blit_41 -->
<g id="node31" class="node">
<title>call_blit_41</title>
<path fill="#e8f0ff" stroke="#333333" d="M943,-483.25C943,-483.25 902.25,-483.25 902.25,-483.25 896.25,-483.25 890.25,-477.25 890.25,-471.25 890.25,-471.25 890.25,-440 890.25,-440 890.25,-434 896.25,-428 902.25,-428 902.25,-428 943,-428 943,-428 949,-428 955,-434 955,-440 955,-440 955,-471.25 955,-471.25 955,-477.25 949,-483.25 943,-483.25"/>
<text xml:space="preserve" text-anchor="middle" x="922.62" y="-465.95" font-family="Arial" font-size="14.00">CALL</text>
<text xml:space="preserve" text-anchor="middle" x="922.62" y="-450.2" font-family="Arial" font-size="14.00">blit</text>
<text xml:space="preserve" text-anchor="middle" x="922.62" y="-434.45" font-family="Arial" font-size="14.00">(line 41)</text>
</g>
<!-- loop_loop_38_38&#45;&gt;call_blit_41 -->
<g id="edge30" class="edge">
<title>loop_loop_38_38&#45;&gt;call_blit_41</title>
<path fill="none" stroke="#1a73e8" d="M1040.08,-538.84C1017.94,-523.35 988.45,-502.7 964.56,-485.98"/>
<polygon fill="#1a73e8" stroke="#1a73e8" points="966.81,-483.28 956.61,-480.41 962.79,-489.01 966.81,-483.28"/>
<text xml:space="preserve" text-anchor="middle" x="1016.73" y="-503.7" font-family="Arial" font-size="14.00">call</text>
</g>
<!-- call_display_score_42 -->
<g id="node32" class="node">
<title>call_display_score_42</title>
<path fill="#e8f0ff" stroke="#333333" d="M1059.88,-483.25C1059.88,-483.25 985.38,-483.25 985.38,-483.25 979.38,-483.25 973.38,-477.25 973.38,-471.25 973.38,-471.25 973.38,-440 973.38,-440 973.38,-434 979.38,-428 985.38,-428 985.38,-428 1059.88,-428 1059.88,-428 1065.88,-428 1071.88,-434 1071.88,-440 1071.88,-440 1071.88,-471.25 1071.88,-471.25 1071.88,-477.25 1065.88,-483.25 1059.88,-483.25"/>
<text xml:space="preserve" text-anchor="middle" x="1022.62" y="-465.95" font-family="Arial" font-size="14.00">CALL</text>
<text xml:space="preserve" text-anchor="middle" x="1022.62" y="-450.2" font-family="Arial" font-size="14.00">display_score</text>
<text xml:space="preserve" text-anchor="middle" x="1022.62" y="-434.45" font-family="Arial" font-size="14.00">(line 42)</text>
</g>
<!-- loop_loop_38_38&#45;&gt;call_display_score_42 -->
<g id="edge31" class="edge">
<title>loop_loop_38_38&#45;&gt;call_display_score_42</title>
<path fill="none" stroke="#1a73e8" d="M1059.75,-534.58C1053.86,-522.21 1046.78,-507.36 1040.4,-493.94"/>
<polygon fill="#1a73e8" stroke="#1a73e8" points="1043.57,-492.46 1036.11,-484.94 1037.25,-495.47 1043.57,-492.46"/>
<text xml:space="preserve" text-anchor="middle" x="1060.74" y="-503.7" font-family="Arial" font-size="14.00">call</text>
</g>
<!-- call_update_43 -->
<g id="node33" class="node">
<title>call_update_43</title>
<path fill="#e8f0ff" stroke="#333333" d="M1143,-483.25C1143,-483.25 1102.25,-483.25 1102.25,-483.25 1096.25,-483.25 1090.25,-477.25 1090.25,-471.25 1090.25,-471.25 1090.25,-440 1090.25,-440 1090.25,-434 1096.25,-428 1102.25,-428 1102.25,-428 1143,-428 1143,-428 1149,-428 1155,-434 1155,-440 1155,-440 1155,-471.25 1155,-471.25 1155,-477.25 1149,-483.25 1143,-483.25"/>
<text xml:space="preserve" text-anchor="middle" x="1122.62" y="-465.95" font-family="Arial" font-size="14.00">CALL</text>
<text xml:space="preserve" text-anchor="middle" x="1122.62" y="-450.2" font-family="Arial" font-size="14.00">update</text>
<text xml:space="preserve" text-anchor="middle" x="1122.62" y="-434.45" font-family="Arial" font-size="14.00">(line 43)</text>
</g>
<!-- loop_loop_38_38&#45;&gt;call_update_43 -->
<g id="edge32" class="edge">
<title>loop_loop_38_38&#45;&gt;call_update_43</title>
<path fill="none" stroke="#1a73e8" d="M1085.5,-534.58C1091.39,-522.21 1098.47,-507.36 1104.85,-493.94"/>
<polygon fill="#1a73e8" stroke="#1a73e8" points="1108,-495.47 1109.14,-484.94 1101.68,-492.46 1108,-495.47"/>
<text xml:space="preserve" text-anchor="middle" x="1110.74" y="-503.7" font-family="Arial" font-size="14.00">call</text>
</g>
<!-- loop_loop_44_44 -->
<g id="node34" class="node">
<title>loop_loop_44_44</title>
<path fill="#e2f7e1" stroke="#333333" d="M1226,-483.25C1226,-483.25 1185.25,-483.25 1185.25,-483.25 1179.25,-483.25 1173.25,-477.25 1173.25,-471.25 1173.25,-471.25 1173.25,-440 1173.25,-440 1173.25,-434 1179.25,-428 1185.25,-428 1185.25,-428 1226,-428 1226,-428 1232,-428 1238,-434 1238,-440 1238,-440 1238,-471.25 1238,-471.25 1238,-477.25 1232,-483.25 1226,-483.25"/>
<text xml:space="preserve" text-anchor="middle" x="1205.62" y="-465.95" font-family="Arial" font-size="14.00">LOOP</text>
<text xml:space="preserve" text-anchor="middle" x="1205.62" y="-450.2" font-family="Arial" font-size="14.00">loop_44</text>
<text xml:space="preserve" text-anchor="middle" x="1205.62" y="-434.45" font-family="Arial" font-size="14.00">(line 44)</text>
</g>
<!-- loop_loop_38_38&#45;&gt;loop_loop_44_44 -->
<g id="edge33" class="edge">
<title>loop_loop_38_38&#45;&gt;loop_loop_44_44</title>
<path fill="none" stroke="#1a73e8" d="M1105.16,-535.94C1122.87,-521.96 1144.98,-504.5 1163.94,-489.53"/>
<polygon fill="#1a73e8" stroke="#1a73e8" points="1166.1,-492.29 1171.78,-483.35 1161.76,-486.8 1166.1,-492.29"/>
<text xml:space="preserve" text-anchor="middle" x="1167.34" y="-503.7" font-family="Arial" font-size="14.00">control</text>
</g>
<!-- call_get_44 -->
<g id="node35" class="node">
<title>call_get_44</title>
<path fill="#e8f0ff" stroke="#333333" d="M1208,-376.25C1208,-376.25 1167.25,-376.25 1167.25,-376.25 1161.25,-376.25 1155.25,-370.25 1155.25,-364.25 1155.25,-364.25 1155.25,-333 1155.25,-333 1155.25,-327 1161.25,-321 1167.25,-321 1167.25,-321 1208,-321 1208,-321 1214,-321 1220,-327 1220,-333 1220,-333 1220,-364.25 1220,-364.25 1220,-370.25 1214,-376.25 1208,-376.25"/>
<text xml:space="preserve" text-anchor="middle" x="1187.62" y="-358.95" font-family="Arial" font-size="14.00">CALL</text>
<text xml:space="preserve" text-anchor="middle" x="1187.62" y="-343.2" font-family="Arial" font-size="14.00">get</text>
<text xml:space="preserve" text-anchor="middle" x="1187.62" y="-327.45" font-family="Arial" font-size="14.00">(line 44)</text>
</g>
<!-- loop_loop_44_44&#45;&gt;call_get_44 -->
<g id="edge34" class="edge">
<title>loop_loop_44_44&#45;&gt;call_get_44</title>
<path fill="none" stroke="#1a73e8" d="M1200.99,-427.58C1198.91,-415.46 1196.42,-400.94 1194.16,-387.74"/>
<polygon fill="#1a73e8" stroke="#1a73e8" points="1197.64,-387.33 1192.5,-378.07 1190.74,-388.51 1197.64,-387.33"/>
<text xml:space="preserve" text-anchor="middle" x="1207.83" y="-396.7" font-family="Arial" font-size="14.00">call</text>
</g>
<!-- if_if_45_45 -->
<g id="node36" class="node">
<title>if_if_45_45</title>
<path fill="#fff3cd" stroke="#333333" d="M1291,-376.25C1291,-376.25 1250.25,-376.25 1250.25,-376.25 1244.25,-376.25 1238.25,-370.25 1238.25,-364.25 1238.25,-364.25 1238.25,-333 1238.25,-333 1238.25,-327 1244.25,-321 1250.25,-321 1250.25,-321 1291,-321 1291,-321 1297,-321 1303,-327 1303,-333 1303,-333 1303,-364.25 1303,-364.25 1303,-370.25 1297,-376.25 1291,-376.25"/>
<text xml:space="preserve" text-anchor="middle" x="1270.62" y="-358.95" font-family="Arial" font-size="14.00">IF</text>
<text xml:space="preserve" text-anchor="middle" x="1270.62" y="-343.2" font-family="Arial" font-size="14.00">if_45</text>
<text xml:space="preserve" text-anchor="middle" x="1270.62" y="-327.45" font-family="Arial" font-size="14.00">(line 45)</text>
</g>
<!-- loop_loop_44_44&#45;&gt;if_if_45_45 -->
<g id="edge35" class="edge">
<title>loop_loop_44_44&#45;&gt;if_if_45_45</title>
<path fill="none" stroke="#1a73e8" d="M1222.36,-427.58C1230.17,-414.97 1239.58,-399.77 1248.01,-386.15"/>
<polygon fill="#1a73e8" stroke="#1a73e8" points="1250.86,-388.21 1253.15,-377.86 1244.91,-384.52 1250.86,-388.21"/>
<text xml:space="preserve" text-anchor="middle" x="1262.27" y="-396.7" font-family="Arial" font-size="14.00">control</text>
</g>
<!-- if_if_46_46 -->
<g id="node37" class="node">
<title>if_if_46_46</title>
<path fill="#fff3cd" stroke="#333333" d="M1273,-269.25C1273,-269.25 1232.25,-269.25 1232.25,-269.25 1226.25,-269.25 1220.25,-263.25 1220.25,-257.25 1220.25,-257.25 1220.25,-226 1220.25,-226 1220.25,-220 1226.25,-214 1232.25,-214 1232.25,-214 1273,-214 1273,-214 1279,-214 1285,-220 1285,-226 1285,-226 1285,-257.25 1285,-257.25 1285,-263.25 1279,-269.25 1273,-269.25"/>
<text xml:space="preserve" text-anchor="middle" x="1252.62" y="-251.95" font-family="Arial" font-size="14.00">IF</text>
<text xml:space="preserve" text-anchor="middle" x="1252.62" y="-236.2" font-family="Arial" font-size="14.00">if_46</text>
<text xml:space="preserve" text-anchor="middle" x="1252.62" y="-220.45" font-family="Arial" font-size="14.00">(line 46)</text>
</g>
<!-- if_if_45_45&#45;&gt;if_if_46_46 -->
<g id="edge36" class="edge">
<title>if_if_45_45&#45;&gt;if_if_46_46</title>
<path fill="none" stroke="#1a73e8" d="M1265.99,-320.58C1263.91,-308.46 1261.42,-293.94 1259.16,-280.74"/>
<polygon fill="#1a73e8" stroke="#1a73e8" points="1262.64,-280.33 1257.5,-271.07 1255.74,-281.51 1262.64,-280.33"/>
<text xml:space="preserve" text-anchor="middle" x="1282.95" y="-289.7" font-family="Arial" font-size="14.00">control</text>
</g>
<!-- if_if_49_49 -->
<g id="node38" class="node">
<title>if_if_49_49</title>
<path fill="#fff3cd" stroke="#333333" d="M1356,-269.25C1356,-269.25 1315.25,-269.25 1315.25,-269.25 1309.25,-269.25 1303.25,-263.25 1303.25,-257.25 1303.25,-257.25 1303.25,-226 1303.25,-226 1303.25,-220 1309.25,-214 1315.25,-214 1315.25,-214 1356,-214 1356,-214 1362,-214 1368,-220 1368,-226 1368,-226 1368,-257.25 1368,-257.25 1368,-263.25 1362,-269.25 1356,-269.25"/>
<text xml:space="preserve" text-anchor="middle" x="1335.62" y="-251.95" font-family="Arial" font-size="14.00">IF</text>
<text xml:space="preserve" text-anchor="middle" x="1335.62" y="-236.2" font-family="Arial" font-size="14.00">if_49</text>
<text xml:space="preserve" text-anchor="middle" x="1335.62" y="-220.45" font-family="Arial" font-size="14.00">(line 49)</text>
</g>
<!-- if_if_45_45&#45;&gt;if_if_49_49 -->
<g id="edge37" class="edge">
<title>if_if_45_45&#45;&gt;if_if_49_49</title>
<path fill="none" stroke="#1a73e8" d="M1291.53,-320.7C1295.7,-314.97 1299.93,-308.87 1303.62,-303 1308.28,-295.6 1312.91,-287.46 1317.14,-279.61"/>
<polygon fill="#1a73e8" stroke="#1a73e8" points="1320.17,-281.38 1321.74,-270.9 1313.98,-278.11 1320.17,-281.38"/>
<text xml:space="preserve" text-anchor="middle" x="1332.49" y="-289.7" font-family="Arial" font-size="14.00">control</text>
</g>
<!-- call_game_loop_50 -->
<g id="node39" class="node">
<title>call_game_loop_50</title>
<path fill="#e8f0ff" stroke="#333333" d="M1365.38,-162.25C1365.38,-162.25 1305.88,-162.25 1305.88,-162.25 1299.88,-162.25 1293.88,-156.25 1293.88,-150.25 1293.88,-150.25 1293.88,-119 1293.88,-119 1293.88,-113 1299.88,-107 1305.88,-107 1305.88,-107 1365.38,-107 1365.38,-107 1371.38,-107 1377.38,-113 1377.38,-119 1377.38,-119 1377.38,-150.25 1377.38,-150.25 1377.38,-156.25 1371.38,-162.25 1365.38,-162.25"/>
<text xml:space="preserve" text-anchor="middle" x="1335.62" y="-144.95" font-family="Arial" font-size="14.00">CALL</text>
<text xml:space="preserve" text-anchor="middle" x="1335.62" y="-129.2" font-family="Arial" font-size="14.00">game_loop</text>
<text xml:space="preserve" text-anchor="middle" x="1335.62" y="-113.45" font-family="Arial" font-size="14.00">(line 50)</text>
</g>
<!-- if_if_49_49&#45;&gt;call_game_loop_50 -->
<g id="edge38" class="edge">
<title>if_if_49_49&#45;&gt;call_game_loop_50</title>
<path fill="none" stroke="#1a73e8" d="M1335.62,-213.58C1335.62,-201.46 1335.62,-186.94 1335.62,-173.74"/>
<polygon fill="#1a73e8" stroke="#1a73e8" points="1339.13,-174.09 1335.63,-164.09 1332.13,-174.09 1339.13,-174.09"/>
<text xml:space="preserve" text-anchor="middle" x="1345.75" y="-182.7" font-family="Arial" font-size="14.00">call</text>
</g>
<!-- call_get_51 -->
<g id="node41" class="node">
<title>call_get_51</title>
<path fill="#e8f0ff" stroke="#333333" d="M1309,-483.25C1309,-483.25 1268.25,-483.25 1268.25,-483.25 1262.25,-483.25 1256.25,-477.25 1256.25,-471.25 1256.25,-471.25 1256.25,-440 1256.25,-440 1256.25,-434 1262.25,-428 1268.25,-428 1268.25,-428 1309,-428 1309,-428 1315,-428 1321,-434 1321,-440 1321,-440 1321,-471.25 1321,-471.25 1321,-477.25 1315,-483.25 1309,-483.25"/>
<text xml:space="preserve" text-anchor="middle" x="1288.62" y="-465.95" font-family="Arial" font-size="14.00">CALL</text>
<text xml:space="preserve" text-anchor="middle" x="1288.62" y="-450.2" font-family="Arial" font-size="14.00">get</text>
<text xml:space="preserve" text-anchor="middle" x="1288.62" y="-434.45" font-family="Arial" font-size="14.00">(line 51)</text>
</g>
<!-- loop_loop_51_51&#45;&gt;call_get_51 -->
<g id="edge40" class="edge">
<title>loop_loop_51_51&#45;&gt;call_get_51</title>
<path fill="none" stroke="#1a73e8" d="M1288.62,-534.58C1288.62,-522.46 1288.62,-507.94 1288.62,-494.74"/>
<polygon fill="#1a73e8" stroke="#1a73e8" points="1292.13,-495.09 1288.63,-485.09 1285.13,-495.09 1292.13,-495.09"/>
<text xml:space="preserve" text-anchor="middle" x="1298.75" y="-503.7" font-family="Arial" font-size="14.00">call</text>
</g>
<!-- if_if_52_52 -->
<g id="node42" class="node">
<title>if_if_52_52</title>
<path fill="#fff3cd" stroke="#333333" d="M1392,-483.25C1392,-483.25 1351.25,-483.25 1351.25,-483.25 1345.25,-483.25 1339.25,-477.25 1339.25,-471.25 1339.25,-471.25 1339.25,-440 1339.25,-440 1339.25,-434 1345.25,-428 1351.25,-428 1351.25,-428 1392,-428 1392,-428 1398,-428 1404,-434 1404,-440 1404,-440 1404,-471.25 1404,-471.25 1404,-477.25 1398,-483.25 1392,-483.25"/>
<text xml:space="preserve" text-anchor="middle" x="1371.62" y="-465.95" font-family="Arial" font-size="14.00">IF</text>
<text xml:space="preserve" text-anchor="middle" x="1371.62" y="-450.2" font-family="Arial" font-size="14.00">if_52</text>
<text xml:space="preserve" text-anchor="middle" x="1371.62" y="-434.45" font-family="Arial" font-size="14.00">(line 52)</text>
</g>
<!-- loop_loop_51_51&#45;&gt;if_if_52_52 -->
<g id="edge41" class="edge">
<title>loop_loop_51_51&#45;&gt;if_if_52_52</title>
<path fill="none" stroke="#1a73e8" d="M1310,-534.58C1320.17,-521.72 1332.46,-506.18 1343.38,-492.36"/>
<polygon fill="#1a73e8" stroke="#1a73e8" points="1345.93,-494.78 1349.38,-484.76 1340.44,-490.44 1345.93,-494.78"/>
<text xml:space="preserve" text-anchor="middle" x="1355.34" y="-503.7" font-family="Arial" font-size="14.00">control</text>
</g>
<!-- if_if_54_54 -->
<g id="node43" class="node">
<title>if_if_54_54</title>
<path fill="#fff3cd" stroke="#333333" d="M1475,-483.25C1475,-483.25 1434.25,-483.25 1434.25,-483.25 1428.25,-483.25 1422.25,-477.25 1422.25,-471.25 1422.25,-471.25 1422.25,-440 1422.25,-440 1422.25,-434 1428.25,-428 1434.25,-428 1434.25,-428 1475,-428 1475,-428 1481,-428 1487,-434 1487,-440 1487,-440 1487,-471.25 1487,-471.25 1487,-477.25 1481,-483.25 1475,-483.25"/>
<text xml:space="preserve" text-anchor="middle" x="1454.62" y="-465.95" font-family="Arial" font-size="14.00">IF</text>
<text xml:space="preserve" text-anchor="middle" x="1454.62" y="-450.2" font-family="Arial" font-size="14.00">if_54</text>
<text xml:space="preserve" text-anchor="middle" x="1454.62" y="-434.45" font-family="Arial" font-size="14.00">(line 54)</text>
</g>
<!-- loop_loop_51_51&#45;&gt;if_if_54_54 -->
<g id="edge42" class="edge">
<title>loop_loop_51_51&#45;&gt;if_if_54_54</title>
<path fill="none" stroke="#1a73e8" d="M1321.26,-540.01C1324.37,-538.23 1327.53,-536.53 1330.62,-535 1351.43,-524.73 1359.43,-528.43 1379.62,-517 1392.48,-509.73 1405.4,-500.28 1416.8,-491.03"/>
<polygon fill="#1a73e8" stroke="#1a73e8" points="1419,-493.75 1424.43,-484.66 1414.51,-488.38 1419,-493.75"/>
<text xml:space="preserve" text-anchor="middle" x="1421.98" y="-503.7" font-family="Arial" font-size="14.00">control</text>
</g>
<!-- if_if_55_55 -->
<g id="node44" class="node">
<title>if_if_55_55</title>
<path fill="#fff3cd" stroke="#333333" d="M1475,-376.25C1475,-376.25 1434.25,-376.25 1434.25,-376.25 1428.25,-376.25 1422.25,-370.25 1422.25,-364.25 1422.25,-364.25 1422.25,-333 1422.25,-333 1422.25,-327 1428.25,-321 1434.25,-321 1434.25,-321 1475,-321 1475,-321 1481,-321 1487,-327 1487,-333 1487,-333 1487,-364.25 1487,-364.25 1487,-370.25 1481,-376.25 1475,-376.25"/>
<text xml:space="preserve" text-anchor="middle" x="1454.62" y="-358.95" font-family="Arial" font-size="14.00">IF</text>
<text xml:space="preserve" text-anchor="middle" x="1454.62" y="-343.2" font-family="Arial" font-size="14.00">if_55</text>
<text xml:space="preserve" text-anchor="middle" x="1454.62" y="-327.45" font-family="Arial" font-size="14.00">(line 55)</text>
</g>
<!-- if_if_54_54&#45;&gt;if_if_55_55 -->
<g id="edge43" class="edge">
<title>if_if_54_54&#45;&gt;if_if_55_55</title>
<path fill="none" stroke="#1a73e8" d="M1454.62,-427.58C1454.62,-415.46 1454.62,-400.94 1454.62,-387.74"/>
<polygon fill="#1a73e8" stroke="#1a73e8" points="1458.13,-388.09 1454.63,-378.09 1451.13,-388.09 1458.13,-388.09"/>
<text xml:space="preserve" text-anchor="middle" x="1474.88" y="-396.7" font-family="Arial" font-size="14.00">control</text>
</g>
<!-- if_if_58_58 -->
<g id="node45" class="node">
<title>if_if_58_58</title>
<path fill="#fff3cd" stroke="#333333" d="M1475,-269.25C1475,-269.25 1434.25,-269.25 1434.25,-269.25 1428.25,-269.25 1422.25,-263.25 1422.25,-257.25 1422.25,-257.25 1422.25,-226 1422.25,-226 1422.25,-220 1428.25,-214 1434.25,-214 1434.25,-214 1475,-214 1475,-214 1481,-214 1487,-220 1487,-226 1487,-226 1487,-257.25 1487,-257.25 1487,-263.25 1481,-269.25 1475,-269.25"/>
<text xml:space="preserve" text-anchor="middle" x="1454.62" y="-251.95" font-family="Arial" font-size="14.00">IF</text>
<text xml:space="preserve" text-anchor="middle" x="1454.62" y="-236.2" font-family="Arial" font-size="14.00">if_58</text>
<text xml:space="preserve" text-anchor="middle" x="1454.62" y="-220.45" font-family="Arial" font-size="14.00">(line 58)</text>
</g>
<!-- if_if_55_55&#45;&gt;if_if_58_58 -->
<g id="edge44" class="edge">
<title>if_if_55_55&#45;&gt;if_if_58_58</title>
<path fill="none" stroke="#1a73e8" d="M1454.62,-320.58C1454.62,-308.46 1454.62,-293.94 1454.62,-280.74"/>
<polygon fill="#1a73e8" stroke="#1a73e8" points="1458.13,-281.09 1454.63,-271.09 1451.13,-281.09 1458.13,-281.09"/>
<text xml:space="preserve" text-anchor="middle" x="1474.88" y="-289.7" font-family="Arial" font-size="14.00">control</text>
</g>
<!-- if_if_61_61 -->
<g id="node46" class="node">
<title>if_if_61_61</title>
<path fill="#fff3cd" stroke="#333333" d="M1475,-162.25C1475,-162.25 1434.25,-162.25 1434.25,-162.25 1428.25,-162.25 1422.25,-156.25 1422.25,-150.25 1422.25,-150.25 1422.25,-119 1422.25,-119 1422.25,-113 1428.25,-107 1434.25,-107 1434.25,-107 1475,-107 1475,-107 1481,-107 1487,-113 1487,-119 1487,-119 1487,-150.25 1487,-150.25 1487,-156.25 1481,-162.25 1475,-162.25"/>
<text xml:space="preserve" text-anchor="middle" x="1454.62" y="-144.95" font-family="Arial" font-size="14.00">IF</text>
<text xml:space="preserve" text-anchor="middle" x="1454.62" y="-129.2" font-family="Arial" font-size="14.00">if_61</text>
<text xml:space="preserve" text-anchor="middle" x="1454.62" y="-113.45" font-family="Arial" font-size="14.00">(line 61)</text>
</g>
<!-- if_if_58_58&#45;&gt;if_if_61_61 -->
<g id="edge45" class="edge">
<title>if_if_58_58&#45;&gt;if_if_61_61</title>
<path fill="none" stroke="#1a73e8" d="M1454.62,-213.58C1454.62,-201.46 1454.62,-186.94 1454.62,-173.74"/>
<polygon fill="#1a73e8" stroke="#1a73e8" points="1458.13,-174.09 1454.63,-164.09 1451.13,-174.09 1458.13,-174.09"/>
<text xml:space="preserve" text-anchor="middle" x="1474.88" y="-182.7" font-family="Arial" font-size="14.00">control</text>
</g>
<!-- if_if_64_64 -->
<g id="node47" class="node">
<title>if_if_64_64</title>
<path fill="#fff3cd" stroke="#333333" d="M1475,-55.25C1475,-55.25 1434.25,-55.25 1434.25,-55.25 1428.25,-55.25 1422.25,-49.25 1422.25,-43.25 1422.25,-43.25 1422.25,-12 1422.25,-12 1422.25,-6 1428.25,0 1434.25,0 1434.25,0 1475,0 1475,0 1481,0 1487,-6 1487,-12 1487,-12 1487,-43.25 1487,-43.25 1487,-49.25 1481,-55.25 1475,-55.25"/>
<text xml:space="preserve" text-anchor="middle" x="1454.62" y="-37.95" font-family="Arial" font-size="14.00">IF</text>
<text xml:space="preserve" text-anchor="middle" x="1454.62" y="-22.2" font-family="Arial" font-size="14.00">if_64</text>
<text xml:space="preserve" text-anchor="middle" x="1454.62" y="-6.45" font-family="Arial" font-size="14.00">(line 64)</text>
</g>
<!-- if_if_61_61&#45;&gt;if_if_64_64 -->
<g id="edge46" class="edge">
<title>if_if_61_61&#45;&gt;if_if_64_64</title>
<path fill="none" stroke="#1a73e8" d="M1454.62,-106.58C1454.62,-94.46 1454.62,-79.94 1454.62,-66.74"/>
<polygon fill="#1a73e8" stroke="#1a73e8" points="1458.13,-67.09 1454.63,-57.09 1451.13,-67.09 1458.13,-67.09"/>
<text xml:space="preserve" text-anchor="middle" x="1474.88" y="-75.7" font-family="Arial" font-size="14.00">control</text>
</g>
<!-- call_len_75 -->
<g id="node53" class="node">
<title>call_len_75</title>
<path fill="#e8f0ff" stroke="#333333" d="M1724,-483.25C1724,-483.25 1683.25,-483.25 1683.25,-483.25 1677.25,-483.25 1671.25,-477.25 1671.25,-471.25 1671.25,-471.25 1671.25,-440 1671.25,-440 1671.25,-434 1677.25,-428 1683.25,-428 1683.25,-428 1724,-428 1724,-428 1730,-428 1736,-434 1736,-440 1736,-440 1736,-471.25 1736,-471.25 1736,-477.25 1730,-483.25 1724,-483.25"/>
<text xml:space="preserve" text-anchor="middle" x="1703.62" y="-465.95" font-family="Arial" font-size="14.00">CALL</text>
<text xml:space="preserve" text-anchor="middle" x="1703.62" y="-450.2" font-family="Arial" font-size="14.00">len</text>
<text xml:space="preserve" text-anchor="middle" x="1703.62" y="-434.45" font-family="Arial" font-size="14.00">(line 75)</text>
</g>
<!-- if_if_75_75&#45;&gt;call_len_75 -->
<g id="edge52" class="edge">
<title>if_if_75_75&#45;&gt;call_len_75</title>
<path fill="none" stroke="#1a73e8" d="M1703.62,-534.58C1703.62,-522.46 1703.62,-507.94 1703.62,-494.74"/>
<polygon fill="#1a73e8" stroke="#1a73e8" points="1707.13,-495.09 1703.63,-485.09 1700.13,-495.09 1707.13,-495.09"/>
<text xml:space="preserve" text-anchor="middle" x="1713.75" y="-503.7" font-family="Arial" font-size="14.00">call</text>
</g>
<!-- if_if_78_78 -->
<g id="node55" class="node">
<title>if_if_78_78</title>
<path fill="#fff3cd" stroke="#333333" d="M1807,-483.25C1807,-483.25 1766.25,-483.25 1766.25,-483.25 1760.25,-483.25 1754.25,-477.25 1754.25,-471.25 1754.25,-471.25 1754.25,-440 1754.25,-440 1754.25,-434 1760.25,-428 1766.25,-428 1766.25,-428 1807,-428 1807,-428 1813,-428 1819,-434 1819,-440 1819,-440 1819,-471.25 1819,-471.25 1819,-477.25 1813,-483.25 1807,-483.25"/>
<text xml:space="preserve" text-anchor="middle" x="1786.62" y="-465.95" font-family="Arial" font-size="14.00">IF</text>
<text xml:space="preserve" text-anchor="middle" x="1786.62" y="-450.2" font-family="Arial" font-size="14.00">if_78</text>
<text xml:space="preserve" text-anchor="middle" x="1786.62" y="-434.45" font-family="Arial" font-size="14.00">(line 78)</text>
</g>
<!-- loop_loop_77_77&#45;&gt;if_if_78_78 -->
<g id="edge54" class="edge">
<title>loop_loop_77_77&#45;&gt;if_if_78_78</title>
<path fill="none" stroke="#1a73e8" d="M1786.62,-534.58C1786.62,-522.46 1786.62,-507.94 1786.62,-494.74"/>
<polygon fill="#1a73e8" stroke="#1a73e8" points="1790.13,-495.09 1786.63,-485.09 1783.13,-495.09 1790.13,-495.09"/>
<text xml:space="preserve" text-anchor="middle" x="1806.88" y="-503.7" font-family="Arial" font-size="14.00">control</text>
</g>
<!-- call_round_84 -->
<g id="node60" class="node">
<title>call_round_84</title>
<path fill="#e8f0ff" stroke="#333333" d="M2155,-483.25C2155,-483.25 2114.25,-483.25 2114.25,-483.25 2108.25,-483.25 2102.25,-477.25 2102.25,-471.25 2102.25,-471.25 2102.25,-440 2102.25,-440 2102.25,-434 2108.25,-428 2114.25,-428 2114.25,-428 2155,-428 2155,-428 2161,-428 2167,-434 2167,-440 2167,-440 2167,-471.25 2167,-471.25 2167,-477.25 2161,-483.25 2155,-483.25"/>
<text xml:space="preserve" text-anchor="middle" x="2134.62" y="-465.95" font-family="Arial" font-size="14.00">CALL</text>
<text xml:space="preserve" text-anchor="middle" x="2134.62" y="-450.2" font-family="Arial" font-size="14.00">round</text>
<text xml:space="preserve" text-anchor="middle" x="2134.62" y="-434.45" font-family="Arial" font-size="14.00">(line 84)</text>
</g>
<!-- if_if_83_83&#45;&gt;call_round_84 -->
<g id="edge59" class="edge">
<title>if_if_83_83&#45;&gt;call_round_84</title>
<path fill="none" stroke="#1a73e8" d="M2165.81,-534.58C2160.86,-522.21 2154.92,-507.36 2149.55,-493.94"/>
<polygon fill="#1a73e8" stroke="#1a73e8" points="2152.93,-492.96 2145.97,-484.98 2146.43,-495.56 2152.93,-492.96"/>
<text xml:space="preserve" text-anchor="middle" x="2168.26" y="-503.7" font-family="Arial" font-size="14.00">call</text>
</g>
<!-- call_round_85 -->
<g id="node61" class="node">
<title>call_round_85</title>
<path fill="#e8f0ff" stroke="#333333" d="M2238,-483.25C2238,-483.25 2197.25,-483.25 2197.25,-483.25 2191.25,-483.25 2185.25,-477.25 2185.25,-471.25 2185.25,-471.25 2185.25,-440 2185.25,-440 2185.25,-434 2191.25,-428 2197.25,-428 2197.25,-428 2238,-428 2238,-428 2244,-428 2250,-434 2250,-440 2250,-440 2250,-471.25 2250,-471.25 2250,-477.25 2244,-483.25 2238,-483.25"/>
<text xml:space="preserve" text-anchor="middle" x="2217.62" y="-465.95" font-family="Arial" font-size="14.00">CALL</text>
<text xml:space="preserve" text-anchor="middle" x="2217.62" y="-450.2" font-family="Arial" font-size="14.00">round</text>
<text xml:space="preserve" text-anchor="middle" x="2217.62" y="-434.45" font-family="Arial" font-size="14.00">(line 85)</text>
</g>
<!-- if_if_83_83&#45;&gt;call_round_85 -->
<g id="edge60" class="edge">
<title>if_if_83_83&#45;&gt;call_round_85</title>
<path fill="none" stroke="#1a73e8" d="M2187.18,-534.58C2192.01,-522.21 2197.82,-507.36 2203.05,-493.94"/>
<polygon fill="#1a73e8" stroke="#1a73e8" points="2206.17,-495.57 2206.55,-484.98 2199.65,-493.03 2206.17,-495.57"/>
<text xml:space="preserve" text-anchor="middle" x="2209.7" y="-503.7" font-family="Arial" font-size="14.00">call</text>
</g>
</g>
</svg>
